G04 ================== begin FILE IDENTIFICATION RECORD ==================*
G04 Layout Name:  J:/etherz/ETHERZb.brd*
G04 Film Name:    BOTTOM*
G04 File Format:  Gerber RS274X*
G04 File Origin:  Cadence Allegro 17.2-P019*
G04 Origin Date:  Tue Mar 16 13:50:32 2021*
G04 *
G04 Layer:  ETCH/BOTTOM*
G04 Layer:  PIN/BOTTOM*
G04 Layer:  VIA CLASS/BOTTOM*
G04 *
G04 Offset:    (0.00 0.00)*
G04 Mirror:    No*
G04 Mode:      Positive*
G04 Rotation:  0*
G04 FullContactRelief:  No*
G04 UndefLineWidth:     0.00*
G04 ================== end FILE IDENTIFICATION RECORD ====================*
%FSLAX25Y25*MOIN*%
%IR0*IPPOS*OFA0.00000B0.00000*MIA0B0*SFA1.00000B1.00000*%
%ADD20C,.06*%
%ADD10C,.024*%
%ADD19R,.06X.06*%
%ADD12C,.05118*%
%ADD13C,.05394*%
%ADD15C,.06693*%
%ADD17C,.07874*%
%ADD14R,.05394X.05394*%
%ADD16R,.06693X.06693*%
%ADD11C,.12598*%
%ADD18C,.19685*%
%ADD21C,.005*%
%ADD22C,.0075*%
%ADD29C,.06122*%
%ADD26C,.07004*%
%ADD23C,.04404*%
%ADD24C,.06398*%
%ADD28C,.07696*%
%ADD27C,.08878*%
%ADD30C,.23414*%
%ADD25C,.20688*%
G75*
%LPD*%
G75*
G36*
G01X-316875Y1875D02*
Y265625D01*
X316875D01*
Y1875D01*
X-316875D01*
G37*
%LPC*%
G75*
G36*
G01X187947Y35293D02*
G02X186147I-900J-3384D01*
G01X186296Y35333D01*
Y49858D01*
X192948Y56511D01*
Y57120D01*
G03X192349Y57467I-400J0D01*
G02X189124Y58803I-1099J1908D01*
G03X188455Y58982I-386J-104D01*
G01X188252Y58779D01*
Y57074D01*
X188372Y57022D01*
G02X186628I-872J-2022D01*
G01X186748Y57074D01*
Y59401D01*
X187080Y59732D01*
G03X186901Y60401I-283J283D01*
G02X185309Y62114I571J2127D01*
G03X184634Y62322I-393J-75D01*
G01X184502Y62190D01*
Y60824D01*
X184622Y60772D01*
G02X182878I-872J-2022D01*
G01X182998Y60824D01*
Y62812D01*
X186998Y66812D01*
Y97894D01*
X186138Y98754D01*
G03X185532Y98706I-282J-283D01*
G02X185428Y101426I-1782J1294D01*
G03X186132Y101685I304J259D01*
G01Y104055D01*
X184060Y106127D01*
X183938Y106079D01*
G02X185171Y107312I-813J2046D01*
G01X185123Y107190D01*
X187083Y105229D01*
G03X187669Y105251I283J283D01*
G02X189969Y101701I1665J-1441D01*
G01X189826Y101659D01*
Y100021D01*
X190098Y99750D01*
X190297Y99948D01*
X190298Y100030D01*
G02X193599Y101908I2202J-30D01*
G03X194198Y102255I199J347D01*
G01Y106511D01*
X195810Y108122D01*
X196917D01*
G03X197295Y108654I0J400D01*
G02X198503Y111397I2080J721D01*
G01X198624Y111449D01*
Y111686D01*
X200189Y113252D01*
X224811D01*
X225752Y112311D01*
Y104689D01*
X217811Y96748D01*
X202811D01*
X195752Y89689D01*
Y65311D01*
X204158Y56905D01*
Y46515D01*
X204306Y46475D01*
G02X202506I-900J-3384D01*
G01X202654Y46515D01*
Y56283D01*
X198934Y60003D01*
G03X198252Y59720I-282J-283D01*
G01Y40311D01*
X203250Y35312D01*
X206517D01*
X206968Y34861D01*
X207101Y34939D01*
G02X205625Y33256I1757J-3030D01*
G03X205256Y33810I-369J154D01*
G01X202628D01*
X196748Y39689D01*
Y50970D01*
G03X196066Y51253I-400J0D01*
G01X193252Y48439D01*
Y46515D01*
X193400Y46475D01*
G02X191600I-900J-3384D01*
G01X191748Y46515D01*
Y49061D01*
X195498Y52811D01*
Y59514D01*
X195134Y59878D01*
G03X194452Y59595I-282J-283D01*
G01Y55889D01*
X187798Y49236D01*
Y35333D01*
X187947Y35293D01*
G37*
G36*
G01X-6687Y71704D02*
G02X-8072Y75876I-813J2046D01*
G03X-7893Y76545I-104J386D01*
G01X-8748Y77400D01*
Y77408D01*
G03X-9182Y77806I-400J0D01*
G02X-7329Y79187I-194J2193D01*
G01X-7377Y79065D01*
X-7244Y78932D01*
Y78022D01*
X-4974Y75752D01*
X10774D01*
X20774Y85752D01*
X29689D01*
X37189Y93252D01*
X40774D01*
X44274Y96752D01*
X47322D01*
G03X47638Y97397I0J400D01*
G02X47353Y97878I1737J1354D01*
G01X47301Y97998D01*
X42811D01*
X39061Y94248D01*
X28439D01*
X18435Y104252D01*
X18313Y104204D01*
G02X19546Y105437I-813J2046D01*
G01X19498Y105315D01*
X29061Y95752D01*
X38439D01*
X42189Y99502D01*
X47301D01*
X47353Y99622D01*
G02X51112Y97397I2022J-872D01*
G03X51428Y96752I316J-245D01*
G01X51939D01*
X52377Y97190D01*
X52329Y97312D01*
G02X55810Y96455I2046J813D01*
G03X56071Y95752I261J-303D01*
G01X56561D01*
X70311Y82002D01*
X77926D01*
X77978Y82122D01*
G02Y80378I2022J-872D01*
G01X77926Y80498D01*
X69689D01*
X55939Y94248D01*
X45311D01*
X31561Y80498D01*
X19061D01*
X10182Y71620D01*
X-6432D01*
X-6565Y71752D01*
X-6687Y71704D01*
G37*
G36*
G01X-304128Y160772D02*
G02X-305872I-872J-2022D01*
G01X-305752Y160824D01*
Y181561D01*
X-296561Y190752D01*
X-279061D01*
X-277319Y192494D01*
G03X-277394Y193118I-283J283D01*
G02X-274368Y196144I1144J1882D01*
G03X-273744Y196069I341J208D01*
G01X-271386Y198426D01*
X-269296D01*
X-268221Y199502D01*
X-255880D01*
Y233932D01*
X-255748Y234065D01*
X-255796Y234187D01*
G02X-253943Y232806I2047J812D01*
G03X-254378Y232408I-35J-398D01*
G01Y224642D01*
G03X-253750Y224313I400J0D01*
G02X-250301Y222616I1250J-1813D01*
G03X-249619Y222354I399J21D01*
G01X-249552Y222421D01*
Y223829D01*
X-250752Y225029D01*
Y236582D01*
G02X-247609Y239383I2002J918D01*
G03X-247002Y239725I207J342D01*
G01Y240426D01*
X-247122Y240478D01*
G02X-245378I872J2022D01*
G01X-245498Y240426D01*
Y236350D01*
G03X-245083Y235950I400J0D01*
G02X-242954Y232937I83J-2200D01*
G01X-243002Y232815D01*
X-241124Y230936D01*
Y227529D01*
X-243574Y225079D01*
Y223671D01*
X-241124Y221221D01*
Y188949D01*
X-241003Y188897D01*
G02X-240440Y185205I-872J-2022D01*
G03X-240179Y184502I261J-303D01*
G01X-232074D01*
X-232022Y184622D01*
G02Y182878I2022J-872D01*
G01X-232074Y182998D01*
X-247301D01*
X-247353Y182878D01*
G02Y184622I-2022J872D01*
G01X-247301Y184502D01*
X-243571D01*
G03X-243310Y185205I0J400D01*
G02X-242747Y188897I1435J1670D01*
G01X-242626Y188949D01*
Y220599D01*
X-245076Y223049D01*
Y225701D01*
X-242626Y228151D01*
Y230314D01*
X-244065Y231752D01*
X-244187Y231704D01*
G02X-246099Y231842I-813J2046D01*
G03X-246699Y231495I-200J-347D01*
G01Y193852D01*
G03X-246291Y193452I400J0D01*
G02X-248202Y192270I41J-2202D01*
G01Y220680D01*
G03X-248884Y220963I-400J0D01*
G01X-249248Y220599D01*
Y193939D01*
X-250189Y192998D01*
X-260939D01*
X-266564Y187374D01*
X-271676D01*
X-271728Y187253D01*
G02Y188997I-2022J872D01*
G01X-271676Y188876D01*
X-267186D01*
X-261561Y194502D01*
X-250811D01*
X-250752Y194561D01*
Y220275D01*
G03X-251359Y220617I-400J0D01*
G02X-253750Y220687I-1141J1883D01*
G03X-254378Y220358I-228J-329D01*
G01Y198810D01*
X-255189Y197998D01*
X-267599D01*
X-268674Y196924D01*
X-270764D01*
X-273048Y194639D01*
Y193674D01*
X-274924Y191798D01*
X-275889D01*
X-277945Y189742D01*
G03X-277926Y189158I282J-283D01*
G02X-281258Y188641I-1449J-1658D01*
G03X-281600Y189248I-342J207D01*
G01X-295939D01*
X-304248Y180939D01*
Y160824D01*
X-304128Y160772D01*
G37*
G36*
G01X-154128Y178272D02*
G02X-156974Y177226I-872J-2022D01*
G03X-157358Y177803I-358J178D01*
G02X-158372Y182022I-142J2197D01*
G01X-158252Y182074D01*
Y222832D01*
G02X-156167Y225950I2002J918D01*
G03X-155752Y226350I15J400D01*
G01Y226676D01*
X-155872Y226728D01*
G02X-154128I872J2022D01*
G01X-154248Y226676D01*
Y226276D01*
X-153048Y225076D01*
Y222424D01*
X-154248Y221224D01*
Y178324D01*
X-154128Y178272D01*
G37*
G36*
G01X-206250Y22500D02*
X-206484Y22208D01*
X-206255Y22024D01*
X-206163Y22043D01*
G02X-211809Y15809I1418J-6958D01*
G03X-212207Y16250I-398J41D01*
G01X-247283D01*
G03X-247681Y15809I0J-400D01*
G02X-254182Y22164I-7064J-724D01*
G03X-253750Y22562I32J399D01*
G01Y36250D01*
X-250000Y41250D01*
X-243750Y42500D01*
X-216250D01*
X-210000Y41250D01*
X-206250Y36250D01*
Y22500D01*
G37*
G36*
G01X-192998Y39061D02*
Y27074D01*
X-192878Y27022D01*
G02X-194622I-872J-2022D01*
G01X-194502Y27074D01*
Y38439D01*
X-201561Y45498D01*
X-222811D01*
X-225814Y48501D01*
Y51501D01*
X-228252Y53939D01*
Y60939D01*
X-232811Y65498D01*
X-245439D01*
X-246986Y63952D01*
Y54001D01*
X-246844Y53958D01*
G02X-248630I-893J-2928D01*
G01X-248488Y54001D01*
Y64574D01*
X-246061Y67002D01*
X-232189D01*
X-226748Y61561D01*
Y54561D01*
X-224310Y52123D01*
Y49123D01*
X-222189Y47002D01*
X-200939D01*
X-192998Y39061D01*
G37*
G36*
G01X-201748Y54266D02*
X-201916Y54098D01*
X-201743Y53925D01*
X-201701Y53910D01*
G02X-203630Y53958I-1037J-2880D01*
G01X-203488Y54001D01*
Y54651D01*
X-203252Y54888D01*
Y72189D01*
X-206561Y75498D01*
X-209061D01*
X-213488Y79926D01*
Y100426D01*
X-213609Y100478D01*
G02X-211865I872J2022D01*
G01X-211986Y100426D01*
Y80548D01*
X-208439Y77002D01*
X-205939D01*
X-201748Y72811D01*
Y54266D01*
G37*
G36*
G01X172002Y120426D02*
Y77168D01*
G02X170083Y78450I-2001J-918D01*
G03X170498Y78850I15J400D01*
G01Y120426D01*
X170378Y120478D01*
G02X172122I872J2022D01*
G01X172002Y120426D01*
G37*
G36*
G01X-263287Y121214D02*
G03X-262840Y120926I385J107D01*
G02X-264622Y118161I340J-2176D01*
G03X-265069Y118449I-385J-107D01*
G02X-263287Y121214I-340J2176D01*
G37*
G36*
G01X255024Y177558D02*
G03X254351I-336J-217D01*
G02Y179942I-1851J1192D01*
G03X255024I336J217D01*
G02Y177558I1851J-1192D01*
G37*
G36*
G01X-225469Y178624D02*
X-236676D01*
X-236728Y178503D01*
G02Y180247I-2022J872D01*
G01X-236676Y180126D01*
X-225955D01*
X-225932Y180299D01*
G02X-225469Y178624I2182J-298D01*
G37*
G36*
G01X-187000Y247512D02*
G03X-187688Y247789I-400J0D01*
G02Y252211I-2312J2211D01*
G03X-187000Y252488I288J277D01*
G01Y253650D01*
G03X-187415Y254050I-400J0D01*
G02X-186359Y258133I-85J2200D01*
G03X-185752Y258475I207J342D01*
G01Y260426D01*
X-185872Y260478D01*
G02X-184128I872J2022D01*
G01X-184248Y260426D01*
Y220030D01*
X-183047Y218828D01*
Y217091D01*
X-182922Y217040D01*
G02X-185950Y214917I-828J-2040D01*
G03X-186334Y215302I-400J-15D01*
G02X-187120Y219524I86J2200D01*
G01X-187000Y219576D01*
Y247512D01*
G37*
G36*
G01X-45796Y239563D02*
X-45748Y239685D01*
X-53432Y247370D01*
Y259176D01*
X-53553Y259228D01*
G02X-51809I872J2022D01*
G01X-51930Y259176D01*
Y247992D01*
X-44685Y240748D01*
X-44563Y240796D01*
G02X-45796Y239563I813J-2046D01*
G37*
G36*
G01X-31497Y241397D02*
X-31376Y241449D01*
Y244686D01*
X-27733Y248330D01*
X-27805Y248462D01*
G02X-26538Y247195I2805J1538D01*
G01X-26670Y247267D01*
X-29874Y244064D01*
Y241449D01*
X-29753Y241397D01*
G02X-31497I-872J-2022D01*
G37*
G36*
G01X-6062Y241421D02*
X-5940Y241373D01*
X-5752Y241561D01*
Y246887D01*
X-5896Y246929D01*
G02X-4104I896J3071D01*
G01X-4248Y246887D01*
Y240939D01*
X-4877Y240310D01*
X-4829Y240188D01*
G02X-6062Y241421I-2046J-813D01*
G37*
G36*
G01X16560Y254498D02*
X20346Y258283D01*
X20328Y258385D01*
G02X21309Y256898I2172J366D01*
G01X21173Y256985D01*
X17623Y253435D01*
X17671Y253313D01*
G02X16438Y254546I-2046J-813D01*
G01X16560Y254498D01*
G37*
G36*
G01X-233198Y247303D02*
Y252697D01*
G02X-232697Y253198I501J0D01*
G01X-227303D01*
G02X-226802Y252697I0J-501D01*
G01Y247303D01*
G02X-227303Y246802I-501J0D01*
G01X-232697D01*
G02X-233198Y247303I0J501D01*
G37*
G36*
G01X-38198D02*
Y252697D01*
G02X-37697Y253198I501J0D01*
G01X-32303D01*
G02X-31802Y252697I0J-501D01*
G01Y247303D01*
G02X-32303Y246802I-501J0D01*
G01X-37697D01*
G02X-38198Y247303I0J501D01*
G37*
G36*
G01X59302Y46678D02*
Y52072D01*
G02X59803Y52574I501J1D01*
G01X65197D01*
G02X65698Y52072I-1J-502D01*
G01Y46678D01*
G02X65197Y46176I-501J-1D01*
G01X59803D01*
G02X59302Y46678I1J502D01*
G37*
G36*
G01X167188Y40091D02*
Y46091D01*
G02X167689Y46592I501J0D01*
G01X173689D01*
G02X174190Y46091I0J-501D01*
G01Y40091D01*
G02X173689Y39590I-501J0D01*
G01X167689D01*
G02X167188Y40091I0J501D01*
G37*
G36*
G01X-118439Y6748D02*
X-164061D01*
X-177002Y19689D01*
Y104019D01*
X-178481Y105498D01*
X-183400D01*
G03X-183742Y104891I0J-400D01*
G02X-187508I-1883J-1141D01*
G03X-187850Y105498I-342J207D01*
G01X-222811D01*
X-230126Y112814D01*
Y114176D01*
X-230247Y114228D01*
G02X-228503I872J2022D01*
G01X-228624Y114176D01*
Y113436D01*
X-222189Y107002D01*
X-177859D01*
X-177668Y106811D01*
G03X-177326Y106952I142J141D01*
G01Y109241D01*
X-177252Y109316D01*
Y113182D01*
X-177002Y113432D01*
Y113723D01*
X-177154Y113760D01*
G02X-173582Y120273I904J3740D01*
G03X-172904Y120561I278J288D01*
G01Y123092D01*
X-174111Y124298D01*
X-174245Y124216D01*
G02X-179990Y126596I-2005J3284D01*
G01X-180027Y126748D01*
X-188439D01*
X-198931Y116256D01*
G03X-198856Y115632I283J-283D01*
G02X-202046Y114563I-1143J-1882D01*
G01X-201998Y114685D01*
X-202811Y115498D01*
X-214061D01*
X-222815Y124252D01*
X-222937Y124204D01*
G02X-222609Y128133I-813J2046D01*
G03X-222002Y128475I207J342D01*
G01Y139189D01*
X-222061Y139248D01*
X-224650D01*
G03X-224992Y138641I0J-400D01*
G02X-228758I-1883J-1141D01*
G03X-229100Y139248I-342J207D01*
G01X-237939D01*
X-237998Y139189D01*
Y127189D01*
X-245314Y119874D01*
X-249176D01*
X-249228Y119753D01*
G02Y121497I-2022J872D01*
G01X-249176Y121376D01*
X-245936D01*
X-239502Y127811D01*
Y139811D01*
X-238561Y140752D01*
X-221439D01*
X-220498Y139811D01*
Y127811D01*
X-220134Y127447D01*
G03X-219452Y127730I282J283D01*
G01Y130076D01*
X-218252Y131276D01*
Y139639D01*
X-221561Y142948D01*
X-232136D01*
X-232269Y143081D01*
X-232391Y143033D01*
G02X-231010Y144886I-812J2047D01*
G03X-230612Y144452I398J-34D01*
G01X-209156D01*
X-208792Y144816D01*
G03X-209075Y145498I-283J282D01*
G01X-226561D01*
X-228486Y147424D01*
X-230076D01*
X-231952Y149299D01*
Y150889D01*
X-235936Y154874D01*
X-236676D01*
X-236728Y154753D01*
G02Y156497I-2022J872D01*
G01X-236676Y156376D01*
X-235822D01*
Y156703D01*
X-235937Y156757D01*
G02X-236883Y159891I937J1993D01*
G03X-237225Y160498I-342J207D01*
G01X-237926D01*
X-237978Y160378D01*
G02X-241883Y162391I-2022J871D01*
G03X-242225Y162998I-342J207D01*
G01X-247189D01*
X-250502Y159685D01*
X-250454Y159563D01*
G02X-251687Y160796I-2046J-813D01*
G01X-251565Y160748D01*
X-248747Y163566D01*
G03X-249030Y164248I-283J282D01*
G01X-262926D01*
X-262978Y164128D01*
G02X-265813Y162954I-2022J872D01*
G01X-265935Y163002D01*
X-276748Y152189D01*
Y118475D01*
G03X-276141Y118133I400J0D01*
G02Y114367I1141J-1883D01*
G03X-276748Y114025I-207J-342D01*
G01Y109062D01*
X-272317Y104630D01*
X-271693D01*
X-271560Y104498D01*
X-271438Y104546D01*
G02X-272796Y102866I813J-2046D01*
G01X-272779Y102967D01*
X-278252Y108440D01*
Y152811D01*
X-266998Y164065D01*
X-267046Y164187D01*
G02X-262978Y165872I2046J813D01*
G01X-262926Y165752D01*
X-231350D01*
G03X-230950Y166167I0J400D01*
G02X-226867Y165109I2200J83D01*
G03X-226525Y164502I342J-207D01*
G01X-222811D01*
X-219686Y167626D01*
X-216848D01*
G03X-216465Y168141I0J400D01*
G02X-213783Y166644I2110J629D01*
G03X-213962Y165975I104J-386D01*
G01X-213789Y165802D01*
X-185638D01*
G03X-185252Y166305I0J400D01*
G02X-183938Y164829I2127J570D01*
G01X-184060Y164877D01*
X-184639Y164298D01*
X-214411D01*
X-216236Y166124D01*
X-219064D01*
X-222189Y162998D01*
X-237775D01*
G03X-238117Y162391I0J-400D01*
G02X-237978Y162122I-1882J-1143D01*
G01X-237926Y162002D01*
X-221439D01*
X-220498Y161061D01*
Y159686D01*
X-220310Y159498D01*
X-220188Y159546D01*
G02X-221421Y158313I813J-2046D01*
G01X-221373Y158435D01*
X-222002Y159064D01*
Y160439D01*
X-222061Y160498D01*
X-232775D01*
G03X-233117Y159891I0J-400D01*
G02X-233771Y156923I-1883J-1141D01*
G03X-233830Y156308I223J-332D01*
G01X-231349Y153826D01*
X-227424D01*
X-225548Y151951D01*
Y148252D01*
X-202526D01*
X-201326Y149452D01*
X-198674D01*
X-197474Y148252D01*
X-196522D01*
X-196470Y148372D01*
G02X-192526Y146426I2022J-871D01*
G03X-192177Y145830I349J-196D01*
G01X-188982D01*
X-180098Y154715D01*
Y160846D01*
G02X-179596Y161348I501J1D01*
G01X-172904D01*
G02X-172402Y160846I0J-501D01*
G01Y154715D01*
X-170939Y153252D01*
X-160189D01*
X-157998Y151061D01*
Y148324D01*
X-157878Y148272D01*
G02X-159622I-872J-2022D01*
G01X-159502Y148324D01*
Y150439D01*
X-160811Y151748D01*
X-171561D01*
X-173465Y153652D01*
X-179035D01*
X-188360Y144328D01*
X-193093D01*
X-194422Y142998D01*
X-196429D01*
G03X-196690Y142295I0J-400D01*
G02X-196572Y139064I-1435J-1670D01*
G03X-196290Y138380I282J-284D01*
G01X-185062D01*
X-184241Y139202D01*
X-183111D01*
X-179061Y143252D01*
X-178770D01*
X-178673Y143348D01*
X-178243D01*
G03X-178055Y144102I1J400D01*
G02X-174445I1805J3398D01*
G03X-174257Y143348I187J-354D01*
G01X-171464D01*
X-169450Y145363D01*
G02X-168387Y144300I3200J2137D01*
G01X-170842Y141846D01*
X-172773D01*
G03X-173056Y141163I0J-400D01*
G01X-170535Y138642D01*
G03X-169875Y138790I283J282D01*
G02X-162966Y135495I3625J-1289D01*
G01X-163048Y135361D01*
X-160314Y132626D01*
X-152074D01*
X-152022Y132747D01*
G02Y131003I2022J-872D01*
G01X-152074Y131124D01*
X-160936D01*
X-164111Y134298D01*
X-164245Y134216D01*
G02X-169990Y136596I-2005J3284D01*
G01X-170027Y136748D01*
X-170767D01*
X-171720Y137701D01*
G03X-172403Y137426I-283J-283D01*
G02X-180054Y136917I-3847J74D01*
G03X-180732Y137139I-395J-61D01*
G01X-180848Y137023D01*
G03X-180863Y136473I283J-283D01*
G02X-180617Y133859I-1637J-1473D01*
G03X-180275Y133252I342J-207D01*
G01X-170939D01*
X-168387Y130700D01*
G02X-162966Y125495I2137J-3200D01*
G01X-163048Y125361D01*
X-160498Y122811D01*
Y114689D01*
X-166748Y108439D01*
Y107155D01*
G03X-166066Y106872I400J0D01*
G01X-158873Y114065D01*
X-158921Y114187D01*
G02X-157688Y112954I2046J813D01*
G01X-157810Y113002D01*
X-165498Y105314D01*
Y92024D01*
X-169248Y88274D01*
Y87946D01*
G03X-168545Y87685I400J0D01*
G02X-167688Y84204I1670J-1435D01*
G01X-167810Y84252D01*
X-168248Y83814D01*
Y75797D01*
G03X-167907Y75656I200J0D01*
G01X-167576Y75986D01*
Y76326D01*
X-165701Y78202D01*
X-165361D01*
X-164502Y79061D01*
Y84062D01*
X-159811Y88753D01*
X-159859Y88875D01*
G02X-158626Y87642I2046J813D01*
G01X-158748Y87690D01*
X-162998Y83440D01*
Y78439D01*
X-163725Y77712D01*
G03X-163586Y77056I283J-283D01*
G02X-165188Y72954I-789J-2056D01*
G01X-165310Y73002D01*
X-166748Y71564D01*
Y23311D01*
X-165246Y21809D01*
G03X-164564Y22092I282J283D01*
G01Y62954D01*
G02X-163762Y67202I814J2046D01*
G03X-163564Y67402I-2J200D01*
G01Y67613D01*
X-163684Y67665D01*
G02X-161496Y67921I872J2022D01*
G03X-161540Y67318I239J-321D01*
G01X-160548Y66326D01*
Y63674D01*
X-162060Y62162D01*
Y23123D01*
X-158189Y19252D01*
X-122211D01*
X-116961Y24502D01*
X-116797D01*
X-100046Y41252D01*
X-99810D01*
X-69374Y71689D01*
Y84673D01*
X-69494Y84725D01*
G02X-67750I872J2022D01*
G01X-67870Y84673D01*
Y71067D01*
X-97503Y41434D01*
G03X-97220Y40752I283J-282D01*
G01X-45311D01*
X-42002Y44061D01*
Y59689D01*
X-44065Y61752D01*
X-44187Y61704D01*
G02X-47046Y64563I-813J2046D01*
G01X-46998Y64685D01*
X-47720Y65408D01*
Y91161D01*
G03X-48403Y91444I-400J0D01*
G01X-50498Y89349D01*
Y84689D01*
X-63624Y71564D01*
Y68949D01*
X-63503Y68897D01*
G02X-65247I-872J-2022D01*
G01X-65126Y68949D01*
Y72186D01*
X-62660Y74653D01*
G03X-62874Y75330I-283J283D01*
G02X-61687Y79546I373J2170D01*
G01X-61565Y79498D01*
X-56426Y84636D01*
Y96954D01*
X-57002Y97529D01*
Y119176D01*
X-57122Y119228D01*
G02X-57894Y122715I872J2022D01*
G01X-57843Y122772D01*
Y123048D01*
X-58201D01*
X-59077Y123924D01*
X-60014D01*
X-77189Y106748D01*
X-81625D01*
X-82252Y106122D01*
X-87394D01*
X-88021Y106748D01*
X-132679D01*
G03X-132940Y106045I0J-400D01*
G02X-132775Y102862I-1435J-1670D01*
G01X-132908Y102721D01*
X-132297Y102110D01*
X-120824D01*
X-120772Y102230D01*
G02X-117778Y103334I2022J-872D01*
G03X-117201Y103702I177J359D01*
G02X-115972Y101774I2201J48D01*
G03X-116549Y101406I-177J-359D01*
G02X-120772Y100486I-2201J-48D01*
G01X-120824Y100606D01*
X-132919D01*
X-133486Y101174D01*
X-135701D01*
X-137576Y103049D01*
Y105701D01*
X-137170Y106108D01*
X-144994Y113931D01*
G03X-145618Y113856I-283J-283D01*
G02X-146628Y112978I-1881J1144D01*
G01X-146748Y112926D01*
Y106675D01*
G03X-146277Y106281I400J-1D01*
G02Y101947I391J-2167D01*
G03X-146748Y101553I-71J-393D01*
G01Y37811D01*
X-134685Y25748D01*
X-134563Y25796D01*
G02X-135796Y24563I813J-2046D01*
G01X-135748Y24685D01*
X-148252Y37189D01*
Y101952D01*
X-149088Y102788D01*
Y105440D01*
X-148252Y106276D01*
Y112926D01*
X-148372Y112978D01*
G02X-146359Y116883I871J2022D01*
G03X-145752Y117225I207J342D01*
G01Y144061D01*
X-140748Y149065D01*
X-140796Y149187D01*
G02X-140658Y151099I2046J813D01*
G03X-141005Y151698I-347J199D01*
G01X-143671D01*
X-147471Y155498D01*
X-149686D01*
X-150315Y156127D01*
X-150437Y156079D01*
G02X-149204Y157312I-813J2046D01*
G01X-149252Y157190D01*
X-149064Y157002D01*
X-146849D01*
X-143049Y153202D01*
X-136951D01*
X-135076Y155076D01*
X-129014D01*
X-127810Y153873D01*
X-127688Y153921D01*
G02X-128921Y152688I813J-2046D01*
G01X-128873Y152810D01*
X-129636Y153574D01*
X-134454D01*
X-136329Y151698D01*
X-136495D01*
G03X-136842Y151099I0J-400D01*
G02X-136704Y149187I-1908J-1099D01*
G01X-136752Y149065D01*
X-134689Y147002D01*
X-133850D01*
G03X-133450Y147417I0J400D01*
G02X-129074Y147163I2200J84D01*
G03X-128679Y146702I395J-61D01*
G01X-124509D01*
X-123884Y146076D01*
X-103642D01*
G03X-103274Y146634I0J400D01*
G02X-102137Y149516I2024J867D01*
G03X-102040Y150188I-161J366D01*
G02X-102312Y150460I1415J1687D01*
G03X-102984Y150363I-306J-258D01*
G02X-107170Y150876I-2016J887D01*
G03X-107847Y151090I-394J-69D01*
G01X-108002Y150935D01*
X-107954Y150813D01*
G02X-109187Y152046I-2046J-813D01*
G01X-109065Y151998D01*
X-108824Y152239D01*
Y155955D01*
G03X-109506Y156238I-400J0D01*
G01X-110498Y155246D01*
Y153439D01*
X-113002Y150935D01*
X-112954Y150813D01*
G02X-114187Y152046I-2046J-813D01*
G01X-114065Y151998D01*
X-112002Y154061D01*
Y155868D01*
X-111915Y155955D01*
G03X-112094Y156624I-283J283D01*
G02X-110709Y160796I572J2126D01*
G01X-110587Y160748D01*
X-109502Y161833D01*
Y170275D01*
G03X-110109Y170617I-400J0D01*
G02X-112626Y174219I-1140J1884D01*
G01Y175426D01*
X-112747Y175478D01*
G02X-110205Y178935I872J2022D01*
G03X-109502Y179196I303J261D01*
G01Y206841D01*
X-110752Y208091D01*
Y208723D01*
X-110904Y208760D01*
G02X-108638Y208901I905J3740D01*
G03X-108779Y208244I142J-374D01*
G01X-107999Y207463D01*
Y177850D01*
G03X-107391Y177508I400J0D01*
G02X-107388Y177510I1222J-1829D01*
G01X-107368Y177523D01*
X-107209Y177681D01*
X-107576Y178049D01*
Y180701D01*
X-107002Y181276D01*
Y196561D01*
X-100752Y202811D01*
Y208723D01*
X-100904Y208760D01*
G02X-99096I904J3740D01*
G01X-99248Y208723D01*
Y202189D01*
X-105498Y195939D01*
Y181874D01*
G03X-104987Y181490I400J0D01*
G02X-103562Y181421I612J-2115D01*
G01X-103440Y181373D01*
X-97002Y187811D01*
Y197811D01*
X-94061Y200752D01*
X-92225D01*
G03X-91883Y201359I0J400D01*
G02X-89306Y204590I1883J1141D01*
G01X-89189Y204551D01*
X-87126Y206613D01*
Y223387D01*
X-89585Y225846D01*
X-96939D01*
G03X-97227Y225168I0J-400D01*
G02X-102773I-2773J-2668D01*
G03X-103061Y225846I-288J278D01*
G01X-106939D01*
G03X-107227Y225168I0J-400D01*
G02X-112005Y219216I-2773J-2668D01*
G01X-112139Y219298D01*
X-114248Y217189D01*
Y204957D01*
X-116620Y202586D01*
Y202318D01*
X-116752Y202185D01*
X-116704Y202063D01*
G02X-118119Y203360I-2047J-812D01*
G01X-118005Y203326D01*
X-115752Y205579D01*
Y214543D01*
G03X-116434Y214826I-400J0D01*
G01X-116729Y214532D01*
X-116653Y214399D01*
G02X-118451Y216023I-3347J-1899D01*
G03X-117890Y216389I161J366D01*
G01Y218611D01*
G03X-118451Y218977I-400J0D01*
G02X-117995Y225784I-1549J3523D01*
G01X-117861Y225702D01*
X-114997Y228566D01*
G03X-115280Y229248I-283J282D01*
G01X-132189D01*
X-136798Y224639D01*
X-136716Y224505D01*
G02X-140928Y218765I-3284J-2005D01*
G01X-141037Y218793D01*
X-141259Y218571D01*
X-140939Y218252D01*
X-134689D01*
X-132137Y215700D01*
G02X-133200Y214637I2137J-3200D01*
G01X-135311Y216748D01*
X-141561D01*
X-148252Y223439D01*
Y233439D01*
X-149061Y234248D01*
X-149453D01*
G03X-149594Y233907I0J-200D01*
G01X-149248Y233561D01*
Y222811D01*
X-142785Y216348D01*
X-136654D01*
G02X-136152Y215846I1J-501D01*
G01Y209154D01*
G02X-136654Y208652I-501J-1D01*
G01X-143346D01*
G02X-143848Y209154I-1J501D01*
G01Y215285D01*
X-150752Y222189D01*
Y232939D01*
X-150811Y232998D01*
X-159689D01*
X-160498Y232189D01*
Y225939D01*
X-185496Y200941D01*
Y195826D01*
X-185376Y195774D01*
G02X-184202Y192939I-872J-2022D01*
G01X-184250Y192817D01*
X-175498Y184065D01*
Y178949D01*
X-175378Y178897D01*
G02X-177122I-872J-2022D01*
G01X-177002Y178949D01*
Y183443D01*
X-185313Y191754D01*
X-185435Y191706D01*
G02X-187391Y191870I-813J2046D01*
G03X-187998Y191528I-207J-342D01*
G01Y177811D01*
X-184372Y174185D01*
X-184250Y174233D01*
G02X-185483Y173000I813J-2046D01*
G01X-185435Y173122D01*
X-189502Y177189D01*
Y195426D01*
X-189622Y195478D01*
G02X-187607Y199382I872J2022D01*
G03X-187000Y199724I207J342D01*
G01Y201563D01*
X-183747Y204816D01*
G03X-184030Y205498I-283J282D01*
G01X-192926D01*
X-192978Y205378D01*
G02Y207122I-2022J872D01*
G01X-192926Y207002D01*
X-184061D01*
X-164502Y226561D01*
Y234061D01*
X-162811Y235752D01*
X-148439D01*
X-146748Y234061D01*
Y224061D01*
X-144513Y221825D01*
G03X-143832Y222145I283J283D01*
G02X-137995Y225784I3832J355D01*
G01X-137861Y225702D01*
X-132811Y230752D01*
X-115311D01*
X-111561Y234502D01*
X-81071D01*
G03X-80810Y235205I0J400D01*
G02X-80247Y238897I1435J1670D01*
G01X-80126Y238949D01*
Y245616D01*
X-80752Y246241D01*
Y246887D01*
X-80896Y246929D01*
G02X-78696Y247079I896J3071D01*
G03X-78816Y246431I163J-365D01*
G01X-78624Y246238D01*
Y238949D01*
X-78503Y238897D01*
G02X-77260Y236263I-872J-2022D01*
G03X-76876Y235752I384J-111D01*
G01X-47189D01*
X-42189Y230752D01*
X-19725D01*
G03X-19383Y231359I0J400D01*
G02X-16687Y234546I1883J1141D01*
G01X-16565Y234498D01*
X-15752Y235311D01*
Y246887D01*
X-15896Y246929D01*
G02X-14104I896J3071D01*
G01X-14248Y246887D01*
Y234689D01*
X-15502Y233435D01*
X-15454Y233313D01*
G02X-15617Y231359I-2046J-813D01*
G03X-15275Y230752I342J-207D01*
G01X-5311D01*
X-2811Y233252D01*
X4689D01*
X14248Y242811D01*
Y246561D01*
X29689Y262002D01*
X128439D01*
X130939Y264502D01*
X184061D01*
X185752Y262811D01*
Y202189D01*
X164061Y180498D01*
X156561D01*
X150311Y174248D01*
X142811D01*
X142703Y174141D01*
G03X143009Y173458I283J-283D01*
G02X144985Y172455I127J-2198D01*
G03X145656Y172453I336J217D01*
G02X146687Y169204I1844J-1203D01*
G01X146565Y169252D01*
X145752Y168439D01*
Y165939D01*
X132002Y152189D01*
Y139689D01*
X124502Y132189D01*
Y128724D01*
X120026Y124248D01*
X111561D01*
X105752Y118439D01*
Y113939D01*
X103611Y111798D01*
X92639D01*
X90498Y113939D01*
Y120939D01*
X68439Y142998D01*
X37780D01*
G03X37497Y142316I0J-400D01*
G01X42002Y137811D01*
Y135752D01*
X47311D01*
X48252Y134811D01*
Y129668D01*
G02X44050Y128665I-2002J-918D01*
G03X43665Y129050I-400J-15D01*
G02X42937Y129204I85J2200D01*
G01X42815Y129252D01*
X39997Y126434D01*
G03X40280Y125752I283J-282D01*
G01X47529D01*
X50029Y128252D01*
X64176D01*
X64228Y128372D01*
G02Y126628I2022J-872D01*
G01X64176Y126748D01*
X50651D01*
X49087Y125184D01*
G03X49370Y124502I283J-282D01*
G01X67111D01*
X67724Y123889D01*
G03X68313Y123915I283J283D01*
G02X67978Y121628I1687J-1415D01*
G01X67926Y121748D01*
X67739D01*
X66489Y122998D01*
X25280D01*
G03X24997Y122316I0J-400D01*
G01X29061Y118252D01*
X65426D01*
X65478Y118372D01*
G02Y116628I2022J-872D01*
G01X65426Y116748D01*
X30115D01*
G03X29832Y116066I0J-400D01*
G01X32646Y113252D01*
X67926D01*
X67978Y113372D01*
G02Y111628I2022J-872D01*
G01X67926Y111748D01*
X32780D01*
G03X32497Y111066I0J-400D01*
G01X34061Y109502D01*
X66582D01*
G02X65300Y107583I918J-2001D01*
G03X64900Y107998I-400J15D01*
G01X56190D01*
G03X55907Y107316I0J-400D01*
G01X59971Y103252D01*
X67926D01*
X67978Y103372D01*
G02X69024Y100526I2022J-872D01*
G03X68447Y100142I-178J-358D01*
G02X64228Y99128I-2197J-142D01*
G01X64176Y99248D01*
X61529D01*
G03X61246Y98566I0J-400D01*
G01X65310Y94502D01*
X69176D01*
X69228Y94622D01*
G02Y92878I2022J-872D01*
G01X69176Y92998D01*
X64688D01*
X53488Y104198D01*
X41005D01*
G03X40658Y103599I0J-400D01*
G02X38358Y100333I-1908J-1099D01*
G01X38340Y100336D01*
X38122D01*
Y100060D01*
X37311Y99248D01*
X33439D01*
X25972Y106715D01*
G03X25295Y106501I-283J-283D01*
G02X21079Y107688I-2170J373D01*
G01X21127Y107810D01*
X15939Y112998D01*
X4821D01*
G03X4560Y112295I0J-400D01*
G02X3498Y108455I-1435J-1670D01*
G03X3210Y107878I68J-394D01*
G02X2803Y105314I-1960J-1003D01*
G03X3085Y104630I282J-284D01*
G01X4818D01*
X6127Y105940D01*
X6079Y106062D01*
G02X7312Y104829I2046J813D01*
G01X7190Y104877D01*
X5440Y103128D01*
X2030D01*
X-2424Y98674D01*
X-4902D01*
G03X-5302Y98251I0J-400D01*
G02X-9672Y98490I-2198J-126D01*
G01X-9654Y98592D01*
X-15802Y104739D01*
Y106954D01*
X-26271Y117424D01*
X-32576D01*
X-34452Y119299D01*
Y122139D01*
X-44061Y131748D01*
X-55311D01*
X-61066Y137503D01*
G03X-61748Y137220I-282J-283D01*
G01Y132689D01*
X-62689Y131748D01*
X-68439D01*
X-72189Y127998D01*
X-78439D01*
X-88439Y117998D01*
X-96582D01*
G02X-95300Y119917I-918J2001D01*
G03X-94900Y119502I400J-15D01*
G01X-94725D01*
G03X-94383Y120109I0J400D01*
G02X-94474Y122226I1883J1141D01*
G03X-94858Y122803I-358J178D01*
G02X-96882Y123856I-143J2197D01*
G03X-97506Y123931I-341J-208D01*
G01X-103753Y117684D01*
G03X-103470Y117002I283J-282D01*
G01X-95029D01*
X-92579Y114552D01*
X-91171D01*
X-89971Y115752D01*
X-87189D01*
X-85758Y114321D01*
X-85636Y114369D01*
G02X-82696Y111755I813J-2046D01*
G03X-82309Y111252I386J-103D01*
G01X-81061D01*
X-66069Y126244D01*
G03X-66144Y126868I-283J283D01*
G02X-63166Y129969I1144J1882D01*
G03X-62590Y129873I333J221D01*
G02X-59048Y128171I1340J-1748D01*
G03X-58378Y127885I400J9D01*
G02X-54767Y126855I1490J-1621D01*
G03X-54099Y126679I385J107D01*
G01X-53280Y127498D01*
X-52699D01*
X-52647Y127618D01*
G02X-50048Y124621I2022J-872D01*
G03X-50337Y124160I104J-386D01*
G02X-50454Y122937I-2163J-410D01*
G01X-50502Y122815D01*
X-48048Y120361D01*
Y106668D01*
G03X-47366Y106385I400J0D01*
G01X-47002Y106749D01*
Y121676D01*
X-47122Y121728D01*
G02X-45378I872J2022D01*
G01X-45498Y121676D01*
Y106127D01*
X-46218Y105408D01*
Y66030D01*
X-45935Y65748D01*
X-45813Y65796D01*
G02X-42954Y62937I813J-2046D01*
G01X-43002Y62815D01*
X-40498Y60311D01*
Y44030D01*
G03X-39816Y43747I400J0D01*
G01X-38876Y44686D01*
Y75426D01*
X-38997Y75478D01*
G02X-36455Y78935I872J2022D01*
G03X-35752Y79196I303J261D01*
G01Y79689D01*
X-38252Y82189D01*
Y84801D01*
X-38372Y84853D01*
G02X-36628I872J2022D01*
G01X-36748Y84801D01*
Y82811D01*
X-36631Y82693D01*
G03X-35948Y82999I283J283D01*
G02X-32878Y81103I2198J126D01*
G01X-32998Y81051D01*
Y77780D01*
G03X-32316Y77497I400J0D01*
G01X-30748Y79065D01*
X-30796Y79187D01*
G02X-27609Y81883I2046J813D01*
G03X-27002Y82225I207J342D01*
G01Y85332D01*
G02X-25083Y84050I2001J918D01*
G03X-25498Y83650I-15J-400D01*
G01Y82946D01*
G03X-24795Y82685I400J0D01*
G02X-21569Y79692I1671J-1434D01*
G03X-21376Y79020I283J-282D01*
G02X-22688Y74829I-499J-2145D01*
G01X-22810Y74877D01*
X-22998Y74689D01*
Y36109D01*
X-28359Y30748D01*
X-95690D01*
X-111254Y15184D01*
G03X-110971Y14502I283J-282D01*
G01X-110824D01*
X-110772Y14622D01*
G02Y12878I2022J-872D01*
G01X-110824Y12998D01*
X-112189D01*
X-118439Y6748D01*
G37*
G54D29*
X-211753Y51030D03*
X-256753D03*
G54D26*
X214311Y43091D03*
X197953Y31909D03*
X181594Y43091D03*
X176142Y31909D03*
G54D23*
X-13125Y88125D03*
X-151875Y147500D03*
X256250Y172500D03*
X248750Y138750D03*
X245625Y143125D03*
X243327Y101673D03*
X214375Y86875D03*
X179237Y183125D03*
X53750Y76250D03*
X-20000Y97500D03*
X-41875Y93750D03*
X-61875Y98750D03*
X-99375Y103125D03*
X-96250Y82500D03*
X-123125Y177500D03*
X-146875Y173750D03*
X-228125Y76250D03*
X-238750Y147500D03*
X-267480Y79980D03*
X-295625Y154375D03*
X-295000Y136875D03*
X-307500Y233021D03*
X-312500Y235729D03*
X-306875Y150000D03*
X-309375Y96875D03*
G54D24*
X270000Y250000D03*
X250000D03*
X260000D03*
X230000D03*
X240000D03*
X220000D03*
X200000D03*
X210000D03*
X190000D03*
X52500Y49375D03*
X42500D03*
X32500D03*
X22500D03*
X5000Y250000D03*
X-70000D03*
X-90000D03*
X-100000D03*
X-120000D03*
X-110000D03*
X-140000D03*
X-130000D03*
X-160000D03*
X-150000D03*
X-170000D03*
X-180000D03*
X-210000D03*
X-200000D03*
X-220000D03*
G54D28*
X-130000Y222500D03*
X-166250Y157500D03*
G54D27*
X-50000Y50000D03*
X-59843Y59843D03*
Y10630D03*
X-79528Y50000D03*
X-99213Y59843D03*
Y10630D03*
X-109056Y50000D03*
G54D30*
X285000Y134375D03*
X290000Y30000D03*
X7500Y90000D03*
X-290000Y30000D03*
G54D25*
X241693Y37500D03*
X143307D03*
%LPD*%
G75*
G36*
G01X-249248Y225651D02*
Y234900D01*
G02X-248833Y235300I400J0D01*
G03X-248624Y235302I83J2200D01*
G02X-248202Y234902I22J-399D01*
G01Y225570D01*
G02X-248884Y225287I-400J0D01*
G01X-249248Y225651D01*
G37*
G36*
G01X-183435Y133002D02*
X-183313Y132954D01*
G03X-182874Y132830I815J2045D01*
G02X-182660Y132153I-69J-394D01*
G01X-185311Y129502D01*
X-191561D01*
X-200869Y120193D01*
G02X-201552Y120499I-283J283D01*
G03X-205772Y121497I-2198J126D01*
G01X-205824Y121376D01*
X-212649D01*
X-217948Y126676D01*
Y127073D01*
X-217678D01*
X-217624Y127029D01*
G03X-214204Y129563I1374J1721D01*
G01X-214252Y129685D01*
X-208189Y135748D01*
X-185079D01*
G02X-184682Y135295I1J-400D01*
G03X-184546Y134187I2182J-295D01*
G01X-184498Y134065D01*
X-185311Y133252D01*
X-186676D01*
X-186728Y133372D01*
G03Y131628I-2022J-872D01*
G01X-186676Y131748D01*
X-184689D01*
X-183435Y133002D01*
G37*
G36*
G01X-215184Y118747D02*
X-221752Y125315D01*
X-221704Y125437D01*
G03X-221580Y125876I-2045J815D01*
G02X-220903Y126090I394J-69D01*
G01X-214502Y119689D01*
Y119030D01*
G02X-215184Y118747I-400J0D01*
G37*
G36*
G01X-215315Y130748D02*
X-215437Y130796D01*
G03X-216333Y130950I-813J-2046D01*
G02X-216748Y131350I-15J400D01*
G01Y140261D01*
X-218753Y142266D01*
G02X-218470Y142948I283J282D01*
G01X-208534D01*
X-207784Y143698D01*
X-204716D01*
X-204016Y142998D01*
X-199821D01*
G02X-199560Y142295I0J-400D01*
G03X-199678Y139064I1435J-1670D01*
G02X-199960Y138380I-282J-284D01*
G01X-211432D01*
X-211565Y138248D01*
X-211687Y138296D01*
G03X-212874Y134080I-814J-2046D01*
G02X-212660Y133403I-69J-394D01*
G01X-215315Y130748D01*
G37*
G36*
G01X-227734Y148797D02*
X-227864Y148926D01*
X-229454D01*
X-230448Y149921D01*
Y151511D01*
X-230578Y151641D01*
G02X-230295Y152324I283J283D01*
G01X-228046D01*
X-227052Y151329D01*
Y149080D01*
G02X-227734Y148797I-400J0D01*
G37*
G36*
G01X-200752Y116530D02*
G02X-201434Y116247I-400J0D01*
G01X-202189Y117002D01*
X-213439D01*
X-213519Y117082D01*
G02X-213378Y117424I141J142D01*
G01X-201514D01*
X-190939Y127998D01*
X-190280D01*
G02X-189997Y127316I0J-400D01*
G01X-200752Y116561D01*
Y116530D01*
G37*
G36*
G01X-212864Y118926D02*
X-212998Y119061D01*
Y119874D01*
X-205824D01*
X-205772Y119753D01*
G03X-205658Y119526I2021J873D01*
G02X-206005Y118926I-347J-200D01*
G01X-212864D01*
G37*
G36*
G01X-180939Y131748D02*
X-171561D01*
X-169450Y129637D01*
G03X-164245Y124216I3200J-2137D01*
G01X-164111Y124298D01*
X-162002Y122189D01*
Y115311D01*
X-168252Y109061D01*
Y104061D01*
X-169788Y102524D01*
Y91274D01*
X-171816Y89247D01*
G02X-172498Y89530I-282J283D01*
G01Y104564D01*
X-172374Y104689D01*
Y105426D01*
X-172253Y105478D01*
G03X-174160Y109443I-872J2022D01*
G02X-174748Y109796I-188J353D01*
G01Y112145D01*
X-171402Y115492D01*
Y123714D01*
X-173048Y125361D01*
X-172966Y125495D01*
G03X-179990Y128404I-3284J2006D01*
G01X-180027Y128252D01*
X-183470D01*
G02X-183753Y128934I0J400D01*
G01X-180939Y131748D01*
G37*
G36*
G01X-171498Y76035D02*
Y87439D01*
X-171434Y87503D01*
G02X-170752Y87220I282J-283D01*
G01Y75816D01*
X-170816Y75752D01*
G02X-171498Y76035I-282J283D01*
G37*
G36*
G01X-168286Y92328D02*
Y101902D01*
X-167684Y102503D01*
G02X-167002Y102220I282J-283D01*
G01Y92646D01*
X-167603Y92045D01*
G02X-168286Y92328I-283J283D01*
G37*
G36*
G01X-156333Y221550D02*
G03X-156167I83J2200D01*
G02X-155752Y221150I15J-400D01*
G01Y182225D01*
G02X-156359Y181883I-400J0D01*
G03X-156628Y182022I-1143J-1882D01*
G01X-156748Y182074D01*
Y221150D01*
G02X-156333Y221550I400J0D01*
G37*
G36*
G01X-162998Y226530D02*
Y233439D01*
X-162189Y234248D01*
X-161530D01*
G02X-161247Y233566I0J-400D01*
G01X-162002Y232811D01*
Y226561D01*
X-162316Y226247D01*
G02X-162998Y226530I-282J283D01*
G37*
G36*
G01X-140184Y115162D02*
X-140498Y115476D01*
Y129025D01*
G02X-139891Y129367I400J0D01*
G03X-139622Y129228I1143J1882D01*
G01X-139502Y129176D01*
Y115445D01*
G02X-140184Y115162I-400J0D01*
G37*
G36*
G01X-127019Y111252D02*
X-127219Y111452D01*
X-130389D01*
X-133002Y114065D01*
X-132954Y114187D01*
G03X-137163Y114589I-2046J813D01*
G02X-137839Y114232I-393J-74D01*
G01X-137998Y114391D01*
Y129176D01*
X-137878Y129228D01*
G03X-139891Y133133I-871J2022D01*
G02X-140498Y133475I-207J342D01*
G01Y134189D01*
X-140439Y134248D01*
X-130079D01*
G02X-129682Y133795I1J-400D01*
G03X-125329Y133867I2182J-295D01*
G02X-124752Y134289I394J66D01*
G03X-121726Y137116I1002J1961D01*
G02X-121358Y137674I368J158D01*
G01X-118259D01*
X-116684Y139248D01*
X-114100D01*
G02X-113758Y138641I0J-400D01*
G03X-109677Y137626I1883J-1141D01*
G02X-108994Y137932I400J23D01*
G01X-107319Y136256D01*
G02X-107394Y135632I-283J-283D01*
G03X-104399Y132558I1144J-1882D01*
G02X-103726I337J-217D01*
G03X-100317Y132194I1851J1192D01*
G02X-99645Y132001I282J-283D01*
G03X-99546Y131687I2144J503D01*
G01X-99498Y131565D01*
X-100702Y130361D01*
Y125692D01*
X-106141Y120252D01*
X-119891D01*
X-120911Y119232D01*
X-121289D01*
X-121422Y119099D01*
X-121544Y119147D01*
G03X-123549Y115249I-813J-2046D01*
G02X-123475Y114638I-216J-336D01*
G03X-123690Y111878I1600J-1513D01*
G02X-124020Y111252I-330J-226D01*
G01X-127019D01*
G37*
G36*
G01X-142002Y116530D02*
G02X-142684Y116247I-400J0D01*
G01X-142998Y116561D01*
Y137939D01*
X-142939Y137998D01*
X-132691D01*
X-132366Y137674D01*
X-128884D01*
X-128559Y137998D01*
X-125975D01*
G02X-125633Y137391I0J-400D01*
G03X-125889Y135726I1883J-1142D01*
G01X-125862Y135617D01*
X-126083Y135396D01*
X-126439Y135752D01*
X-141061D01*
X-142002Y134811D01*
Y116530D01*
G37*
G36*
G01X-131329Y140176D02*
X-131904Y140752D01*
X-139689D01*
X-140502Y141565D01*
X-140454Y141687D01*
G03X-142126Y144670I-2046J813D01*
G02X-142340Y145347I69J394D01*
G01X-139685Y148002D01*
X-139563Y147954D01*
G03X-137937I813J2046D01*
G01X-137815Y148002D01*
X-135311Y145498D01*
X-134061D01*
X-132136Y143574D01*
X-128829D01*
X-128292Y144110D01*
X-127992Y143847D01*
G03X-128133Y141359I1742J-1347D01*
G02X-128475Y140752I-342J-207D01*
G01X-129346D01*
X-129921Y140176D01*
X-131329D01*
G37*
G36*
G01X-113185Y111878D02*
G03X-112954Y113938I-1815J1246D01*
G01X-113002Y114060D01*
X-111564Y115498D01*
X-95651D01*
X-93201Y113048D01*
X-90549D01*
X-89349Y114248D01*
X-87811D01*
X-86821Y113258D01*
X-86869Y113136D01*
G03X-86950Y111755I2046J-813D01*
G02X-87337Y111252I-386J-103D01*
G01X-112855D01*
G02X-113185Y111878I0J400D01*
G37*
G36*
G01X-119158Y114176D02*
G03X-117585Y113425I1658J1449D01*
G02X-117200Y113040I-15J-400D01*
G03X-116815Y111878I2200J84D01*
G02X-117145Y111252I-330J-226D01*
G01X-119730D01*
G02X-120060Y111878I0J400D01*
G03X-119829Y113938I-1815J1246D01*
G01X-119877Y114060D01*
X-119742Y114195D01*
G02X-119158Y114176I283J-282D01*
G37*
G36*
G01X7421Y126426D02*
X6426Y127421D01*
Y127561D01*
X5736Y128252D01*
X-4689D01*
X-13439Y137002D01*
X-16613D01*
X-19314Y139702D01*
X-21894D01*
X-30498Y148306D01*
Y160426D01*
X-30378Y160478D01*
G03X-32122I-872J2022D01*
G01X-32002Y160426D01*
Y149360D01*
G02X-32684Y149077I-400J0D01*
G01X-34248Y150641D01*
Y153551D01*
X-34128Y153603D01*
G03X-35872I-872J2022D01*
G01X-35752Y153551D01*
Y151695D01*
G02X-36434Y151412I-400J0D01*
G01X-43025Y158002D01*
X-43189D01*
X-44638Y159452D01*
X-59056D01*
G02X-59393Y160066I0J400D01*
G03X-63420Y161624I-1857J1184D01*
G02X-64097Y161410I-394J69D01*
G01X-64877Y162190D01*
X-64829Y162312D01*
G03X-66062Y161079I-2046J813D01*
G01X-65940Y161127D01*
X-64552Y159739D01*
Y156005D01*
G02X-65151Y155658I-400J0D01*
G03X-65913Y151574I-1099J-1908D01*
G02X-65452Y151179I61J-395D01*
G01Y149509D01*
X-63252Y147309D01*
Y140905D01*
G02X-63934Y140622I-400J0D01*
G01X-64877Y141565D01*
X-64829Y141687D01*
G03X-66062Y140454I-2046J813D01*
G01X-65940Y140502D01*
X-63252Y137814D01*
Y133311D01*
X-63311Y133252D01*
X-67220D01*
G02X-67503Y133934I0J400D01*
G01X-67185Y134252D01*
X-67063Y134204D01*
G03X-68296Y135437I813J2046D01*
G01X-68248Y135315D01*
X-69311Y134252D01*
X-69476D01*
X-72976Y130752D01*
X-93439D01*
X-94248Y131561D01*
Y136061D01*
X-95189Y137002D01*
X-102649D01*
X-108649Y143002D01*
X-118108D01*
G03X-118279Y143249I-1892J-1127D01*
G02X-118123Y143574I156J125D01*
G01X-103266D01*
X-102990Y143298D01*
X-99510D01*
X-99235Y143572D01*
X-90260D01*
X-85123Y138435D01*
X-85171Y138313D01*
G03X-83938Y139546I2046J-813D01*
G01X-84060Y139498D01*
X-86878Y142316D01*
G02X-86595Y142998I283J282D01*
G01X-85199D01*
X-85147Y142878D01*
G03Y144622I2022J872D01*
G01X-85199Y144502D01*
X-87649D01*
X-89224Y146076D01*
X-98858D01*
G02X-99226Y146634I0J400D01*
G03X-99835Y149187I-2024J866D01*
G02X-99738Y149859I258J306D01*
G03X-101438Y153921I-886J2016D01*
G01X-101560Y153873D01*
X-102998Y155311D01*
Y155864D01*
X-102725D01*
X-102670Y155817D01*
G03X-101496Y159688I1420J1683D01*
G02X-101824Y160368I-45J397D01*
G01X-97684Y164508D01*
G02X-97002Y164225I282J-283D01*
G01Y162529D01*
X-95600Y161127D01*
Y159719D01*
X-98252Y157067D01*
Y153099D01*
X-95701Y150548D01*
X-94111D01*
X-94061Y150498D01*
X-92699D01*
X-92647Y150378D01*
G03Y152122I2022J872D01*
G01X-92699Y152002D01*
X-93439D01*
X-93489Y152052D01*
X-95079D01*
X-96748Y153721D01*
Y156445D01*
X-94096Y159097D01*
Y161749D01*
X-95498Y163151D01*
Y164189D01*
X-95439Y164248D01*
X-95189D01*
X-94248Y165189D01*
Y165939D01*
X-90184Y170003D01*
G02X-89502Y169720I282J-283D01*
G01Y158357D01*
X-85522Y154378D01*
X-85289D01*
Y154160D01*
X-85292Y154142D01*
G03X-83938Y155796I2167J-392D01*
G01X-84060Y155748D01*
X-84193Y155880D01*
X-84900D01*
X-87998Y158979D01*
Y169689D01*
X-85939Y171748D01*
X-32811D01*
X-32002Y170939D01*
Y169689D01*
X-22811Y160498D01*
X-21561D01*
X-10752Y149689D01*
Y142189D01*
X-7811Y139248D01*
X596D01*
X3046Y141698D01*
X5261D01*
X8252Y144689D01*
Y149689D01*
X12811Y154248D01*
X23439D01*
X40498Y137189D01*
Y136561D01*
X34689Y130752D01*
X27074D01*
X27022Y130872D01*
G03X23117Y128859I-2022J-871D01*
G02X22775Y128252I-342J-207D01*
G01X10514D01*
X10044Y127781D01*
G03X9863Y127490I531J-532D01*
G01X9848Y127446D01*
X8829Y126426D01*
X7421D01*
G37*
G36*
G01X98505Y113302D02*
G02X98158Y113901I0J400D01*
G03X98224Y115976I-1908J1099D01*
G02X98608Y116553I358J178D01*
G03X100724Y119726I142J2197D01*
G02X101108Y120303I358J178D01*
G03X99228Y123372I142J2197D01*
G01X99176Y123252D01*
X97811D01*
X94997Y126066D01*
G02X95280Y126748I283J282D01*
G01X100426D01*
X100478Y126628D01*
G03Y128372I2022J872D01*
G01X100426Y128252D01*
X95311D01*
X91247Y132316D01*
G02X91530Y132998I283J282D01*
G01X92189D01*
X93439Y131748D01*
X100426D01*
X100478Y131628D01*
G03X104697Y132642I2022J872D01*
G02X105274Y133026I399J26D01*
G03X108450Y134915I976J1974D01*
G02X108835Y135300I400J-15D01*
G03X110724Y138476I-85J2200D01*
G02X111108Y139053I358J178D01*
G03X109228Y142122I142J2197D01*
G01X109176Y142002D01*
X84061D01*
X64061Y162002D01*
X63324D01*
X63272Y162122D01*
G03X60437Y163296I-2022J-872D01*
G01X60315Y163248D01*
X57811Y165752D01*
X11561D01*
X9502Y167811D01*
Y171561D01*
X7811Y173252D01*
X3324D01*
X3272Y173372D01*
G03X3133Y173641I-2021J-874D01*
G02X3475Y174248I342J207D01*
G01X5476D01*
X9226Y177998D01*
X9614D01*
Y177725D01*
X9567Y177670D01*
G03X13272Y175378I1683J-1420D01*
G01X13324Y175498D01*
X21220D01*
X24619Y178897D01*
G02X25301Y178635I283J-283D01*
G03X25889Y177249I2199J115D01*
G02X25601Y176576I-292J-273D01*
G03X27647Y173502I24J-2202D01*
G01X27699Y173622D01*
X28435D01*
X32811Y177998D01*
X71689D01*
X71748Y177939D01*
Y177280D01*
G02X71066Y176997I-400J0D01*
G01X71061Y177002D01*
X37189D01*
X34068Y173881D01*
G02X33444Y173956I-283J283D01*
G03X33584Y171940I-1882J-1144D01*
G01X33636Y172060D01*
X34373D01*
X37811Y175498D01*
X70439D01*
X70628Y175310D01*
Y164574D01*
X70507Y164522D01*
G03X72243Y160475I872J-2022D01*
G02X72800Y160090I157J-368D01*
G03X77016Y159113I2200J-90D01*
G02X77688Y159210I366J-161D01*
G03X81062I1687J1415D01*
G02X81734Y159113I306J-258D01*
G03X85920Y159627I2016J887D01*
G02X86497Y159915I394J-68D01*
G03X89556Y161086I1003J1960D01*
G02X90212Y161225I373J-144D01*
G01X95939Y155498D01*
X104801D01*
X104853Y155378D01*
G03Y157122I2022J872D01*
G01X104801Y157002D01*
X99725D01*
G02X99383Y157609I0J400D01*
G03X98372Y160772I-1883J1141D01*
G01X98252Y160824D01*
Y161561D01*
X84502Y175311D01*
Y181561D01*
X77811Y188252D01*
X25199D01*
X25147Y188372D01*
G03X20927Y187374I-2022J-872D01*
G02X20244Y187068I-400J-23D01*
G01X-2814Y210126D01*
X-14064D01*
X-20502Y216565D01*
X-20454Y216687D01*
G03X-21687Y215454I-2046J813D01*
G01X-21565Y215502D01*
X-14686Y208624D01*
X-3436D01*
X20939Y184248D01*
X24720D01*
G02X25003Y183566I0J-400D01*
G01X20939Y179502D01*
X20386D01*
Y179775D01*
X20433Y179830D01*
G03X16728Y182122I-1683J1420D01*
G01X16676Y182002D01*
X9689D01*
X4689Y177002D01*
X-19689D01*
X-22998Y180311D01*
Y181061D01*
X-23939Y182002D01*
X-42775D01*
G02X-43117Y182609I0J400D01*
G03X-43473Y185337I-1883J1141D01*
G02Y185913I277J288D01*
G03X-45813Y189546I-1527J1587D01*
G01X-45935Y189498D01*
X-46174Y189736D01*
Y190076D01*
X-47998Y191901D01*
Y209689D01*
X-45935Y211752D01*
X-45813Y211704D01*
G03X-47046Y212937I813J2046D01*
G01X-46998Y212815D01*
X-48657Y211156D01*
G02X-48998Y211297I-141J141D01*
G01Y211789D01*
G03X-50872Y211728I-1002J1961D01*
G01X-50752Y211676D01*
Y211489D01*
X-50502Y211239D01*
Y190642D01*
G03X-47817Y187194I1127J-1892D01*
G02X-47145Y187001I282J-283D01*
G03X-46527Y185913I2145J499D01*
G02Y185337I-277J-288D01*
G03X-46883Y182609I1527J-1587D01*
G02X-47225Y182002I-342J-207D01*
G01X-54650D01*
G02X-54992Y182609I0J400D01*
G03X-58758I-1883J1141D01*
G02X-59100Y182002I-342J-207D01*
G01X-90311D01*
X-92153Y180160D01*
G02X-92830Y180374I-283J283D01*
G03X-94128Y182022I-2170J-374D01*
G01X-94248Y182074D01*
Y195939D01*
X-92189Y197998D01*
X-59689D01*
X-56748Y200939D01*
Y214524D01*
X-55774Y215498D01*
X-52189D01*
X-49689Y217998D01*
X-42699D01*
X-42647Y217878D01*
G03Y219622I2022J872D01*
G01X-42699Y219502D01*
X-50311D01*
X-52811Y217002D01*
X-53364D01*
Y217275D01*
X-53317Y217330D01*
G03X-57046Y217937I-1683J1420D01*
G01X-56998Y217815D01*
X-59502Y215311D01*
Y202811D01*
X-61561Y200752D01*
X-87775D01*
G02X-88117Y201359I0J400D01*
G03X-87910Y203194I-1883J1142D01*
G01X-87949Y203311D01*
X-85374Y205887D01*
Y224113D01*
X-88859Y227598D01*
X-112873D01*
G02X-113156Y228281I0J400D01*
G01X-109439Y231998D01*
X-78309D01*
X-77309Y232998D01*
X-73475D01*
G02X-73133Y232391I0J-400D01*
G03X-73296Y230437I1883J-1141D01*
G01X-73248Y230315D01*
X-75311Y228252D01*
X-77926D01*
X-77978Y228372D01*
G03Y226628I-2022J-872D01*
G01X-77926Y226748D01*
X-74689D01*
X-72185Y229252D01*
X-72063Y229204D01*
G03X-69367Y232391I813J2046D01*
G02X-69025Y232998I342J207D01*
G01X-49061D01*
X-42811Y226748D01*
X-4689D01*
X-939Y230498D01*
X6561D01*
X18252Y242189D01*
Y245939D01*
X30311Y257998D01*
X129061D01*
X132811Y261748D01*
X181689D01*
X182696Y260742D01*
Y252772D01*
G02X182040Y252464I-400J0D01*
G03Y247536I-2040J-2464D01*
G02X182696Y247228I256J-308D01*
G01Y204061D01*
X161886Y183252D01*
X154689D01*
X150939Y179502D01*
X133439D01*
X130939Y177002D01*
X122189D01*
X117998Y172811D01*
Y154061D01*
X117189Y153252D01*
X85824D01*
X85772Y153372D01*
G03Y151628I-2022J-872D01*
G01X85824Y151748D01*
X117811D01*
X119502Y153439D01*
Y172189D01*
X122811Y175498D01*
X123939D01*
G02X124200Y174795I0J-400D01*
G03X124763Y171103I1435J-1670D01*
G01X124884Y171051D01*
Y170864D01*
X132998Y162749D01*
Y158141D01*
X128248Y153391D01*
Y148928D01*
G02X127603Y148612I-400J0D01*
G03Y145138I-1353J-1737D01*
G02X128248Y144822I245J-316D01*
G01Y141811D01*
X117185Y130748D01*
X117063Y130796D01*
G03X117837Y127223I-813J-2046D01*
G02X118413I288J-277D01*
G03X119428Y126624I1586J1528D01*
G02X119607Y125955I-104J-386D01*
G01X119404Y125752D01*
X110939D01*
X104248Y119061D01*
Y114561D01*
X102989Y113302D01*
X98505D01*
G37*
G36*
G01X-90275Y119502D02*
G02X-90617Y120109I0J400D01*
G03X-92642Y123447I-1883J1141D01*
G02X-93026Y124024I-26J399D01*
G03X-94915Y127200I-1974J976D01*
G02X-95300Y127585I15J400D01*
G03X-98874Y129221I-2200J-85D01*
G01X-98928Y129177D01*
X-99198D01*
Y129739D01*
X-98435Y130502D01*
X-98313Y130454D01*
G03X-95987Y130900I813J2046D01*
G02X-95709Y130896I137J-146D01*
G01X-94061Y129248D01*
X-80280D01*
G02X-79997Y128566I0J-400D01*
G01X-89061Y119502D01*
X-90275D01*
G37*
G36*
G01X-107320Y153006D02*
Y157702D01*
X-106434Y158588D01*
G02X-105752Y158305I282J-283D01*
G01Y153324D01*
X-105872Y153272D01*
G03X-106625Y152736I872J-2022D01*
G02X-107320Y153006I-295J270D01*
G37*
G36*
G01X-109267Y159295D02*
X-109440Y159468D01*
X-109455Y159509D01*
G03X-109476Y159563I-2062J-771D01*
G01X-109524Y159685D01*
X-107998Y161211D01*
Y173400D01*
G02X-107391Y173742I400J0D01*
G03X-104290Y176628I1141J1883D01*
G02X-104002Y177205I356J183D01*
G03X-103234Y177492I-373J2170D01*
G02X-102626Y177150I208J-342D01*
G01Y173949D01*
X-102747Y173897D01*
G03X-101003I872J-2022D01*
G01X-101124Y173949D01*
Y174803D01*
X-100797D01*
X-100743Y174688D01*
G03X-96728Y174753I1993J937D01*
G01X-96676Y174874D01*
X-94655D01*
G02X-94372Y174191I0J-400D01*
G01X-109267Y159295D01*
G37*
G36*
G01X-102064Y179748D02*
X-102243Y179927D01*
X-102257Y179977D01*
G03X-102329Y180188I-2117J-605D01*
G01X-102377Y180310D01*
X-96434Y186253D01*
G02X-95752Y185970I282J-283D01*
G01Y182074D01*
X-95872Y182022D01*
G03X-97170Y180374I872J-2022D01*
G02X-97809Y180126I-394J68D01*
G01X-101686D01*
X-102064Y179748D01*
G37*
G36*
G01X-86560Y174502D02*
G02X-86843Y175184I0J400D01*
G01X-86779Y175248D01*
X-31311D01*
X-31247Y175184D01*
G02X-31530Y174502I-283J-282D01*
G01X-86560D01*
G37*
G36*
G01X-59653Y77660D02*
G02X-60330Y77874I-283J283D01*
G03X-60454Y78313I-2170J-376D01*
G01X-60502Y78435D01*
X-54924Y84014D01*
Y97576D01*
X-55498Y98151D01*
Y119176D01*
X-55378Y119228D01*
G03X-54053Y121392I-872J2022D01*
G02X-53476Y121776I399J26D01*
G03X-51687Y121704I975J1974D01*
G01X-51565Y121752D01*
X-49552Y119739D01*
Y95380D01*
G02X-50151Y95033I-400J0D01*
G03X-51822Y90999I-1100J-1908D01*
G02X-51643Y90330I-104J-386D01*
G01X-52002Y89971D01*
Y85311D01*
X-59653Y77660D01*
G37*
G36*
G01X-55297Y150880D02*
X-55349Y151001D01*
G03X-58627Y151938I-2022J-872D01*
G02X-59223Y152110I-228J329D01*
G03X-59367Y152391I-2027J-861D01*
G02X-59025Y152998I342J207D01*
G01X-44156D01*
X-42721Y151563D01*
G02X-43004Y150880I-283J-283D01*
G01X-55297D01*
G37*
G36*
G01X-62002Y153511D02*
Y153324D01*
X-62122Y153272D01*
G03X-62683Y152922I872J-2022D01*
G01X-62824Y152801D01*
X-63048Y153026D01*
Y159056D01*
G02X-62434Y159393I400J0D01*
G03X-61559Y159070I1183J1857D01*
G01X-61493Y159060D01*
X-61055Y158622D01*
X-61048Y158550D01*
G03X-60715Y157995I748J71D01*
G02X-60600Y157444I-221J-334D01*
G03X-60633Y155109I1850J-1194D01*
G02X-60975Y154502I-342J-207D01*
G01X-61011D01*
X-62002Y153511D01*
G37*
G36*
G01X-58396Y139241D02*
G02X-59069Y139048I-390J90D01*
G01X-60748Y140727D01*
Y144935D01*
G02X-60044Y145195I400J0D01*
G03X-58325Y144652I1294J1105D01*
G02X-57825Y144282I100J-387D01*
G03X-53579Y145188I2200J93D01*
G01X-53627Y145310D01*
X-53439Y145498D01*
X-40901D01*
X-40587Y145184D01*
G02X-40870Y144502I-283J-282D01*
G01X-51561D01*
X-53302Y142761D01*
Y140811D01*
X-53974Y140139D01*
G02X-54563Y140165I-283J283D01*
G03X-58396Y139241I-1687J-1415D01*
G37*
G36*
G01X-31748Y75939D02*
X-29685Y78002D01*
X-29563Y77954D01*
G03X-27609Y78117I813J2046D01*
G02X-27002Y77775I207J-342D01*
G01Y37061D01*
X-29811Y34252D01*
X-39806D01*
G02X-40089Y34934I0J400D01*
G01X-30628Y44396D01*
Y71158D01*
G02X-30193Y71556I400J0D01*
G03X-31420Y75433I193J2194D01*
G01X-31475Y75386D01*
X-31748D01*
Y75939D01*
G37*
G36*
G01X-37811Y134248D02*
X-37035Y133472D01*
G02X-37249Y132795I-283J-283D01*
G03X-36062Y128579I373J-2170D01*
G01X-35940Y128627D01*
X-26922Y119609D01*
G02X-27205Y118926I-283J-283D01*
G01X-31954D01*
X-32948Y119921D01*
Y122761D01*
X-43439Y133252D01*
X-50005D01*
G02X-50288Y133934I0J400D01*
G01X-49974Y134248D01*
X-37811D01*
G37*
G36*
G01X-44997Y141066D02*
X-45315Y140748D01*
X-45437Y140796D01*
G03X-45116Y136862I-813J-2046D01*
G02X-44540Y136670I206J-343D01*
G03X-44383Y136359I2038J834D01*
G02X-44725Y135752I-342J-207D01*
G01X-50001D01*
G02X-50385Y136263I0J400D01*
G03X-50328Y137240I-2115J614D01*
G01X-50346Y137342D01*
X-49248Y138439D01*
Y141689D01*
X-49189Y141748D01*
X-45280D01*
G02X-44997Y141066I0J-400D01*
G37*
G36*
G01X-44135Y139364D02*
G03X-44204Y139563I-2113J-621D01*
G01X-44252Y139685D01*
X-43439Y140498D01*
X-40146D01*
X-37082Y137434D01*
G02X-37365Y136752I-283J-282D01*
G01X-39921D01*
G02X-40318Y137205I-1J400D01*
G03X-43823Y139260I-2182J295D01*
G02X-44135Y139364I-120J160D01*
G37*
G36*
G01X-54690Y146373D02*
X-54812Y146421D01*
G03X-55465Y146571I-814J-2046D01*
G02X-55719Y147253I29J399D01*
G01X-54974Y147998D01*
X-41986D01*
X-41672Y147684D01*
G02X-41955Y147002I-283J-282D01*
G01X-54061D01*
X-54690Y146373D01*
G37*
G36*
G01X-44030Y154502D02*
X-56525D01*
G02X-56867Y155109I0J400D01*
G03X-56728Y155378I-1882J1143D01*
G01X-56676Y155498D01*
X-44061D01*
X-43747Y155184D01*
G02X-44030Y154502I-283J-282D01*
G37*
G36*
G01X-56676Y157002D02*
X-56728Y157122D01*
G03X-56842Y157349I-2021J-873D01*
G02X-56495Y157948I347J199D01*
G01X-45260D01*
X-44996Y157684D01*
G02X-45279Y157002I-283J-282D01*
G01X-56676D01*
G37*
G36*
G01X-42189Y228252D02*
X-42503Y228566D01*
G02X-42220Y229248I283J282D01*
G01X-5280D01*
G02X-4997Y228566I0J-400D01*
G01X-5311Y228252D01*
X-42189D01*
G37*
G36*
G01X-36691Y44703D02*
G02X-37374Y44986I-283J283D01*
G01Y75426D01*
X-37253Y75478D01*
G03X-36455Y76065I-872J2022D01*
G02X-35752Y75804I303J-261D01*
G01Y45642D01*
X-36691Y44703D01*
G37*
G36*
G01X-6514Y101326D02*
X-25803Y120616D01*
G02X-25520Y121298I283J282D01*
G01X-24861D01*
X-13436Y109874D01*
X-9196D01*
G02X-8935Y109170I1J-400D01*
G03X-8372Y105478I1435J-1670D01*
G01X-8252Y105426D01*
Y105314D01*
X-5748Y102810D01*
X-5796Y102688D01*
G03X-5948Y101749I2046J-813D01*
G02X-6348Y101326I-400J-23D01*
G01X-6514D01*
G37*
G36*
G01X-25079Y125802D02*
X-26074Y126796D01*
Y130198D01*
X-24586D01*
X-21676Y127289D01*
Y127029D01*
X-21132Y126484D01*
G02X-21415Y125802I-283J-282D01*
G01X-25079D01*
G37*
G36*
G01X-34877Y129690D02*
X-34829Y129812D01*
G03X-34705Y130251I-2046J815D01*
G02X-34028Y130465I394J-69D01*
G01X-30576Y127014D01*
Y126355D01*
G02X-31259Y126072I-400J0D01*
G01X-34877Y129690D01*
G37*
G36*
G01X-22189Y162002D02*
X-30498Y170311D01*
Y170970D01*
G02X-29816Y171253I400J0D01*
G01X-21247Y162684D01*
G02X-21530Y162002I-283J-282D01*
G01X-22189D01*
G37*
G36*
G01X-20585Y171648D02*
X-26503Y177566D01*
G02X-26220Y178248I283J282D01*
G01X-25891D01*
X-20890Y173248D01*
X-20560D01*
X-19902Y172590D01*
Y171931D01*
G02X-20585Y171648I-400J0D01*
G37*
G36*
G01X-5306Y73557D02*
G03X-5300Y73833I-2194J186D01*
G02X-4900Y74248I400J15D01*
G01X9720D01*
G02X10003Y73566I0J-400D01*
G01X9560Y73122D01*
X-4908D01*
G02X-5306Y73557I0J400D01*
G37*
G36*
G01X-13616Y106303D02*
X-8150Y100837D01*
G02X-8289Y100181I-283J-283D01*
G03X-8313Y100171I835J-2037D01*
G01X-8435Y100123D01*
X-8568Y100256D01*
X-9193D01*
X-14298Y105361D01*
Y106020D01*
G02X-13616Y106303I400J0D01*
G37*
G36*
G01X-12530Y115502D02*
X-13024D01*
X-21140Y123616D01*
G02X-20857Y124298I283J282D01*
G01X-20361D01*
X-12247Y116184D01*
G02X-12530Y115502I-283J-282D01*
G37*
G36*
G01X-955Y102268D02*
G02X-1624Y102447I-283J283D01*
G03X-4563Y103921I-2126J-572D01*
G01X-4685Y103873D01*
X-6070Y105258D01*
G02X-6051Y105842I282J283D01*
G03X-6065Y109170I-1449J1658D01*
G02X-5804Y109874I260J304D01*
G01X1051D01*
X1103Y109753D01*
G03X1165Y109622I2020J876D01*
G02X877Y109045I-356J-183D01*
G03X678Y104749I373J-2170D01*
G02X857Y104080I-104J-386D01*
G01X-955Y102268D01*
G37*
G36*
G01X-12814Y111376D02*
X-13752Y112315D01*
G02X-13469Y112998I283J283D01*
G01X1429D01*
G02X1690Y112295I0J-400D01*
G03X1103Y111497I1435J-1670D01*
G01X1051Y111376D01*
X-12814D01*
G37*
G36*
G01X-9030Y124502D02*
X-9687D01*
X-21044Y135857D01*
G02X-20903Y136198I141J141D01*
G01X-20766D01*
X-15819Y131253D01*
X-15065Y130498D01*
X-14061D01*
X-8747Y125184D01*
G02X-9030Y124502I-283J-282D01*
G37*
G36*
G01X-7220Y141748D02*
X5D01*
G02X288Y141066I0J-400D01*
G01X-26Y140752D01*
X-7189D01*
X-7503Y141066D01*
G02X-7220Y141748I283J282D01*
G37*
G36*
G01X-7170Y159124D02*
G02X-7847Y158910I-394J69D01*
G01X-17254Y168317D01*
G02X-16971Y169000I283J283D01*
G01X-16312D01*
X-6998Y159685D01*
X-7046Y159563D01*
G03X-7170Y159124I2045J-815D01*
G37*
G36*
G01X-3447Y161108D02*
G02X-4024Y160724I-399J-26D01*
G03X-5813Y160796I-975J-1974D01*
G01X-5935Y160748D01*
X-14845Y169658D01*
G02X-14704Y170000I141J142D01*
G01X-14375D01*
X-10126Y174248D01*
X-9196D01*
G02X-8935Y173545I0J-400D01*
G03X-6065I1435J-1670D01*
G02X-5804Y174248I261J303D01*
G01X-975D01*
G02X-633Y173641I0J-400D01*
G03X-894Y172000I1883J-1141D01*
G02X-1375Y171519I-390J-91D01*
G03X-3487Y167874I-500J-2144D01*
G02X-3775Y167202I-293J-272D01*
G03X-3608Y162803I25J-2202D01*
G02X-3224Y162226I26J-399D01*
G03X-3447Y161108I1974J-975D01*
G37*
G36*
G01X2002Y148475D02*
Y153439D01*
X5311Y156748D01*
X10805D01*
G02X11088Y156066I0J-400D01*
G01X10774Y155752D01*
X10029D01*
X5748Y151471D01*
Y148303D01*
G02X5103Y147987I-400J0D01*
G03X2609Y148133I-1353J-1737D01*
G02X2002Y148475I-207J342D01*
G37*
G36*
G01X1561Y163252D02*
X-939Y165752D01*
X-1676D01*
X-1728Y165872D01*
G03X-2138Y166501I-2023J-870D01*
G02X-1850Y167173I293J272D01*
G03X-1062Y167329I-26J2202D01*
G01X-940Y167377D01*
X2503Y163934D01*
G02X2220Y163252I-283J-282D01*
G01X1561D01*
G37*
G36*
G01X4061Y164502D02*
X123Y168440D01*
X171Y168562D01*
G03X269Y169875I-2046J813D01*
G02X750Y170356I390J91D01*
G03X3272Y171628I500J2144D01*
G01X3324Y171748D01*
X7189D01*
X7998Y170939D01*
Y167189D01*
X10003Y165184D01*
G02X9720Y164502I-283J-282D01*
G01X4061D01*
G37*
G36*
G01X13324Y177002D02*
X13272Y177122D01*
G03X13133Y177391I-2021J-874D01*
G02X13475Y177998I342J207D01*
G01X20629D01*
G02X20912Y177316I0J-400D01*
G01X20598Y177002D01*
X13324D01*
G37*
G36*
G01X9997Y180184D02*
X10311Y180498D01*
X16676D01*
X16728Y180378D01*
G03X16867Y180109I2021J874D01*
G02X16525Y179502I-342J-207D01*
G01X10280D01*
G02X9997Y180184I0J400D01*
G37*
G36*
G01X19832Y82684D02*
X21396Y84248D01*
X30311D01*
X37811Y91748D01*
X39720D01*
G02X40003Y91066I0J-400D01*
G01X30939Y82002D01*
X20115D01*
G02X19832Y82684I0J400D01*
G37*
G36*
G01X27225Y128252D02*
G02X26883Y128859I0J400D01*
G03X27022Y129128I-1882J1143D01*
G01X27074Y129248D01*
X35311D01*
X36066Y130003D01*
G02X36748Y129720I282J-283D01*
G01Y128311D01*
X36689Y128252D01*
X27225D01*
G37*
G36*
G01X27189Y156748D02*
X30502Y153435D01*
X30454Y153313D01*
G03X30330Y152874I2045J-815D01*
G02X29653Y152660I-394J69D01*
G01X26561Y155752D01*
X25476D01*
X25162Y156066D01*
G02X25445Y156748I283J282D01*
G01X27189D01*
G37*
G36*
G01X39252Y152185D02*
X39204Y152063D01*
G03X42063Y149204I2046J-813D01*
G01X42185Y149252D01*
X43753Y147684D01*
G02X43470Y147002I-283J-282D01*
G01X39061D01*
X34498Y151565D01*
X34546Y151687D01*
G03X31687Y154546I-2046J813D01*
G01X31565Y154498D01*
X29997Y156066D01*
G02X30280Y156748I283J282D01*
G01X34689D01*
X39252Y152185D01*
G37*
G36*
G01X25008Y186359D02*
G03X25147Y186628I-1882J1143D01*
G01X25199Y186748D01*
X77189D01*
X77503Y186434D01*
G02X77220Y185752I-283J-282D01*
G01X25350D01*
G02X25008Y186359I0J400D01*
G37*
G36*
G01X28131Y175444D02*
G02X27506Y175518I-283J282D01*
G03X27236Y175875I-1882J-1143D01*
G02X27524Y176548I292J273D01*
G03X29546Y179563I-24J2202D01*
G01X29498Y179685D01*
X30311Y180498D01*
X72939D01*
X72998Y180439D01*
Y179780D01*
G02X72316Y179497I-400J0D01*
G01X72311Y179502D01*
X32189D01*
X28131Y175444D01*
G37*
G36*
G01X29997Y260184D02*
X30311Y260498D01*
X128470D01*
G02X128753Y259816I0J-400D01*
G01X128439Y259502D01*
X30280D01*
G02X29997Y260184I0J400D01*
G37*
G36*
G01X46748Y130933D02*
X46536D01*
X46524Y130935D01*
G03X46335Y130950I-269J-2185D01*
G02X45950Y131335I15J400D01*
G03X41704Y130437I-2200J-84D01*
G01X41752Y130315D01*
X38439Y127002D01*
X38047D01*
G02X37906Y127343I0J200D01*
G01X38252Y127689D01*
Y129689D01*
X42811Y134248D01*
X46689D01*
X46748Y134189D01*
Y130933D01*
G37*
G36*
G01X44252Y154685D02*
X44204Y154563D01*
G03X47063Y151704I2046J-813D01*
G01X47185Y151752D01*
X49689Y149248D01*
X67613D01*
X67927Y148934D01*
G02X67644Y148252I-283J-282D01*
G01X45311D01*
X43248Y150315D01*
X43296Y150437D01*
G03X40437Y153296I-2046J813D01*
G01X40315Y153248D01*
X36247Y157316D01*
G02X36530Y157998I283J282D01*
G01X39689D01*
X42189Y155498D01*
X43439D01*
X44252Y154685D01*
G37*
G36*
G01X49176Y155498D02*
X49228Y155378D01*
G03X50378Y154228I2022J872D01*
G01X50498Y154176D01*
Y152689D01*
X51753Y151434D01*
G02X51470Y150752I-283J-282D01*
G01X50311D01*
X48248Y152815D01*
X48296Y152937D01*
G03X48133Y154891I-2046J813D01*
G02X48475Y155498I342J207D01*
G01X49176D01*
G37*
G36*
G01X37811Y144502D02*
X32660Y149653D01*
G02X32874Y150330I283J283D01*
G03X33313Y150454I-376J2170D01*
G01X33435Y150502D01*
X38439Y145498D01*
X68439D01*
X68753Y145184D01*
G02X68470Y144502I-283J-282D01*
G01X37811D01*
G37*
G36*
G01X54248Y157189D02*
Y154668D01*
G03X54367Y152609I2002J-917D01*
G02X54025Y152002I-342J-207D01*
G01X53311D01*
X52002Y153311D01*
Y154176D01*
X52122Y154228D01*
G03X49228Y157122I-872J2022D01*
G01X49176Y157002D01*
X45476D01*
X42662Y159816D01*
G02X42945Y160498I283J282D01*
G01X50939D01*
X54248Y157189D01*
G37*
G36*
G01X88641Y163758D02*
G03X87108Y164042I-1142J-1883D01*
G01X87090Y164039D01*
X86872D01*
Y164355D01*
X81752Y169476D01*
Y171220D01*
G02X82434Y171503I400J0D01*
G01X89248Y164689D01*
Y164100D01*
G02X88641Y163758I-400J0D01*
G37*
G36*
G01X76687Y161415D02*
G03X75872Y162022I-1687J-1415D01*
G01X75752Y162074D01*
Y164686D01*
X73252Y167186D01*
Y170345D01*
G02X73934Y170628I400J0D01*
G01X74498Y170064D01*
Y169274D01*
X78624Y165149D01*
Y162699D01*
X78503Y162647D01*
G03X77359Y161512I871J-2022D01*
G02X76687Y161415I-366J161D01*
G37*
G36*
G01X81391Y161512D02*
G03X80247Y162647I-2015J-887D01*
G01X80126Y162699D01*
Y165771D01*
X76002Y169896D01*
Y170686D01*
X74502Y172186D01*
Y181061D01*
X74497Y181066D01*
G02X74780Y181748I283J282D01*
G01X77944D01*
X79248Y180444D01*
Y168439D01*
X82998Y164689D01*
Y162074D01*
X82878Y162022D01*
G03X82063Y161415I872J-2022D01*
G02X81391Y161512I-306J258D01*
G37*
G36*
G01X83434Y174253D02*
X96431Y161256D01*
G02X96356Y160632I-283J-283D01*
G03X95330Y159124I1144J-1882D01*
G02X94653Y158910I-394J69D01*
G01X90752Y162811D01*
Y165311D01*
X82752Y173311D01*
Y173970D01*
G02X83434Y174253I400J0D01*
G37*
G36*
G01X93261Y113302D02*
X92002Y114561D01*
Y120970D01*
G02X92684Y121253I400J0D01*
G01X95498Y118439D01*
Y117074D01*
X95378Y117022D01*
G03X94342Y113901I872J-2022D01*
G02X93995Y113302I-347J-199D01*
G01X93261D01*
G37*
G36*
G01X94061Y133252D02*
X93747Y133566D01*
G02X94030Y134248I283J282D01*
G01X100275D01*
G02X100617Y133641I0J-400D01*
G03X100478Y133372I1882J-1143D01*
G01X100426Y133252D01*
X94061D01*
G37*
G36*
G01Y135752D02*
X93747Y136066D01*
G02X94030Y136748I283J282D01*
G01X104025D01*
G02X104367Y136141I0J-400D01*
G03X104228Y135872I1882J-1143D01*
G01X104176Y135752D01*
X94061D01*
G37*
G36*
G01Y138252D02*
X92497Y139816D01*
G02X92780Y140498I283J282D01*
G01X109176D01*
X109228Y140378D01*
G03X109276Y140274I2023J870D01*
G02X108892Y139697I-358J-178D01*
G03X106728Y138372I-142J-2197D01*
G01X106676Y138252D01*
X94061D01*
G37*
G36*
G01X135184Y158912D02*
G02X134502Y159195I-282J283D01*
G01Y163371D01*
X127024Y170849D01*
G02X127050Y171438I283J283D01*
G03X127657Y172253I-1415J1687D01*
G01X127709Y172374D01*
X132814D01*
X134689Y170498D01*
X139061D01*
X140254Y171692D01*
G02X140937Y171386I283J-283D01*
G03X142263Y169238I2198J-126D01*
G01X142383Y169186D01*
Y166111D01*
X135184Y158912D01*
G37*
G36*
G01X135311Y172002D02*
X133436Y173876D01*
X127709D01*
X127657Y173997D01*
G03X127070Y174795I-2022J-872D01*
G02X127331Y175498I261J303D01*
G01X131561D01*
X134061Y177998D01*
X150970D01*
G02X151253Y177316I0J-400D01*
G01X149689Y175752D01*
X142189D01*
X138439Y172002D01*
X135311D01*
G37*
G36*
G01X191872Y93146D02*
Y97408D01*
G02X192307Y97806I400J0D01*
G03X193112Y97885I191J2194D01*
G02X193624Y97501I112J-384D01*
G01Y93931D01*
X192555Y92863D01*
G02X191872Y93146I-283J283D01*
G37*
G36*
G01X195126Y94985D02*
Y98099D01*
X195702Y98674D01*
Y105889D01*
X196432Y106620D01*
X196611D01*
G02X196894Y105937I0J-400D01*
G01X196748Y105791D01*
Y95641D01*
X195809Y94702D01*
G02X195126Y94985I-283J283D01*
G37*
G36*
G01X213752Y106783D02*
Y102815D01*
X212939Y102002D01*
X200189D01*
X199248Y101061D01*
Y96726D01*
X198934Y96412D01*
G02X198252Y96695I-282J283D01*
G01Y105169D01*
X198256Y105174D01*
X201116D01*
X201491Y105548D01*
X205701D01*
X206901Y106748D01*
X207301D01*
X207353Y106628D01*
G03X211545Y107127I2022J872D01*
G02X212122Y107415I394J-68D01*
G03X213318Y107181I1004J1960D01*
G02X213752Y106783I34J-398D01*
G37*
G36*
G01X201434Y97497D02*
G02X200752Y97780I-282J283D01*
G01Y100439D01*
X200811Y100498D01*
X213561D01*
X215256Y102193D01*
Y108307D01*
X215123Y108440D01*
X215171Y108562D01*
G03X214560Y111045I-2046J813D01*
G02X214821Y111748I261J303D01*
G01X224189D01*
X224248Y111689D01*
Y105311D01*
X217189Y98252D01*
X202189D01*
X201434Y97497D01*
G37*
G36*
G01X201354Y108410D02*
G03X200767Y111081I-1979J965D01*
G02X200737Y111674I253J310D01*
G01X200811Y111748D01*
X211429D01*
G02X211690Y111045I0J-400D01*
G03X210955Y109748I1435J-1670D01*
G02X210378Y109460I-394J68D01*
G03X207353Y108372I-1003J-1960D01*
G01X207301Y108252D01*
X206975D01*
G02X206575Y108667I0J400D01*
G03X202181Y108557I-2200J83D01*
G02X201783Y108122I-398J-35D01*
G01X201534D01*
G02X201354Y108410I0J200D01*
G37*
%LPC*%
G75*
G36*
G01X17937Y132954D02*
X17815Y133002D01*
X17682Y132870D01*
X9477D01*
G03X9077Y132474I0J-400D01*
G02X4673I-2202J26D01*
G03X4273Y132870I-400J-4D01*
G01X-6432D01*
X-19686Y146124D01*
X-21676D01*
X-21728Y146003D01*
G02Y147747I-2022J872D01*
G01X-21676Y147626D01*
X-19064D01*
X-5810Y134372D01*
X-1517D01*
G03X-1188Y135000I0J400D01*
G02X2438I1813J1250D01*
G03X2767Y134372I329J-228D01*
G01X4220D01*
X5549Y135702D01*
X8201D01*
X9530Y134372D01*
X16158D01*
G03X16556Y134807I0J400D01*
G02X17937Y132954I2193J194D01*
G37*
G36*
G01X11676Y186748D02*
X7637D01*
X7585Y186627D01*
G02Y188373I-2022J873D01*
G01X7637Y188252D01*
X11676D01*
X11728Y188373D01*
G02Y186627I2022J-873D01*
G01X11676Y186748D01*
G37*
G36*
G01X85322Y195767D02*
G02X81103Y194753I-2197J-142D01*
G01X81051Y194874D01*
X40314D01*
X34248Y200939D01*
Y216038D01*
G03X33699Y216409I-400J0D01*
G02X31604Y222446I-1198J2966D01*
G01X31748Y222488D01*
Y227811D01*
X33002Y229065D01*
X32954Y229187D01*
G02X34187Y227954I2046J813D01*
G01X34065Y228002D01*
X33252Y227189D01*
Y222488D01*
X33396Y222446D01*
G02X35305Y217837I-896J-3071D01*
G01X35233Y217705D01*
X35752Y217186D01*
Y201561D01*
X40936Y196376D01*
X81051D01*
X81103Y196497D01*
G02X81242Y196766I2021J-874D01*
G03X80900Y197374I-342J208D01*
G01X42814D01*
X40498Y199689D01*
Y214988D01*
X41316Y215806D01*
G03X41196Y216454I-283J283D01*
G02X41604Y222446I1304J2921D01*
G01X41748Y222488D01*
Y231676D01*
X41628Y231728D01*
G02X43372I872J2022D01*
G01X43252Y231676D01*
Y222488D01*
X43396Y222446D01*
G02Y216304I-896J-3071D01*
G01X43252Y216262D01*
Y215616D01*
X42002Y214366D01*
Y200311D01*
X43436Y198876D01*
X51595D01*
G03X51878Y199559I0J400D01*
G01X50498Y200939D01*
Y214988D01*
X51316Y215806D01*
G03X51196Y216454I-283J283D01*
G02Y222296I1304J2921D01*
G03X51316Y222944I-163J365D01*
G01X50498Y223762D01*
Y235426D01*
X50378Y235478D01*
G02X52122I872J2022D01*
G01X52002Y235426D01*
Y224384D01*
X53252Y223134D01*
Y222488D01*
X53396Y222446D01*
G02Y216304I-896J-3071D01*
G01X53252Y216262D01*
Y215616D01*
X52002Y214366D01*
Y201561D01*
X53436Y200126D01*
X84349D01*
X85728Y201506D01*
X87540D01*
G03X87822Y202189I0J400D01*
G02X87353Y202878I1553J1561D01*
G01X87301Y202998D01*
X61439D01*
X60498Y203939D01*
Y214988D01*
X61316Y215806D01*
G03X61196Y216454I-283J283D01*
G02X61604Y222446I1304J2921D01*
G01X61748Y222488D01*
Y238188D01*
G02X63414Y237837I1252J1812D01*
G01X63252Y237806D01*
Y222488D01*
X63396Y222446D01*
G02Y216304I-896J-3071D01*
G01X63252Y216262D01*
Y215616D01*
X62002Y214366D01*
Y204561D01*
X62061Y204502D01*
X87301D01*
X87353Y204622D01*
G02X87492Y204891I2021J-874D01*
G03X87150Y205498I-342J207D01*
G01X73439D01*
X70498Y208439D01*
Y214988D01*
X71316Y215806D01*
G03X71196Y216454I-283J283D01*
G02X71604Y222446I1304J2921D01*
G01X71748Y222488D01*
Y230311D01*
X73002Y231565D01*
X72954Y231687D01*
G02X74187Y230454I2046J813D01*
G01X74065Y230502D01*
X73252Y229689D01*
Y222488D01*
X73396Y222446D01*
G02Y216304I-896J-3071D01*
G01X73252Y216262D01*
Y215616D01*
X72002Y214366D01*
Y209061D01*
X74061Y207002D01*
X91676D01*
X91728Y207122D01*
G02X91867Y207391I2021J-874D01*
G03X91525Y207998I-342J207D01*
G01X85939D01*
X81748Y212189D01*
Y216262D01*
X81604Y216304D01*
G02Y222446I896J3071D01*
G01X81748Y222488D01*
Y223134D01*
X82998Y224384D01*
Y231676D01*
X82878Y231728D01*
G02X84622I872J2022D01*
G01X84502Y231676D01*
Y223762D01*
X83684Y222944D01*
G03X83804Y222296I283J-283D01*
G02X83396Y216304I-1304J-2921D01*
G01X83252Y216262D01*
Y212811D01*
X86561Y209502D01*
X95626D01*
G03X96010Y210013I0J400D01*
G02X97253Y212647I2115J612D01*
G01X97374Y212699D01*
Y213439D01*
X94170Y216642D01*
X94038Y216570D01*
G02X91604Y222446I-1538J2805D01*
G01X91748Y222488D01*
Y232926D01*
X91628Y232978D01*
G02X91356Y236882I872J2022D01*
G03X91431Y237506I-208J341D01*
G01X84685Y244252D01*
X84563Y244204D01*
G02X85796Y245437I-813J2046D01*
G01X85748Y245315D01*
X92811Y238252D01*
X105311D01*
X108252Y235311D01*
Y219061D01*
X108643Y218670D01*
G03X109323Y218999I283J283D01*
G02X111604Y222446I3177J376D01*
G01X111748Y222488D01*
Y237189D01*
X110935Y238002D01*
X110813Y237954D01*
G02X112046Y239187I-813J2046D01*
G01X111998Y239065D01*
X113252Y237811D01*
Y222488D01*
X113396Y222446D01*
G02X111516Y216331I-896J-3071D01*
G01X111400Y216369D01*
X111172Y216141D01*
X111561Y215752D01*
X116561D01*
X126244Y206069D01*
G03X126868Y206144I283J283D01*
G02X128469Y207184I1882J-1144D01*
G03X128757Y207793I-51J397D01*
G02X128528Y209631I1868J1166D01*
G01X128565Y209747D01*
X127998Y210314D01*
Y210439D01*
X127939Y210498D01*
X123939D01*
X116748Y217689D01*
Y239189D01*
X112939Y242998D01*
X97189D01*
X90939Y249248D01*
X75613D01*
X75571Y249104D01*
G02Y250896I-3071J896D01*
G01X75613Y250752D01*
X91561D01*
X97811Y244502D01*
X113561D01*
X118252Y239811D01*
Y218311D01*
X124561Y212002D01*
X128561D01*
X129061Y211502D01*
X129145D01*
X129690Y210957D01*
X129812Y211005D01*
G02X130906Y206775I814J-2046D01*
G03X130618Y206166I51J-397D01*
G02X126728Y204128I-1868J-1166D01*
G01X126676Y204248D01*
X125939D01*
X115939Y214248D01*
X110939D01*
X106748Y218439D01*
Y234689D01*
X104689Y236748D01*
X103475D01*
G03X103133Y236141I0J-400D01*
G02X102122Y232978I-1883J-1141D01*
G01X102002Y232926D01*
Y224384D01*
X103252Y223134D01*
Y222488D01*
X103396Y222446D01*
G02X101196Y222296I-896J-3071D01*
G03X101316Y222944I-163J365D01*
G01X100498Y223762D01*
Y232926D01*
X100378Y232978D01*
G02X99367Y236141I872J2022D01*
G03X99025Y236748I-342J207D01*
G01X94725D01*
G03X94383Y236141I0J-400D01*
G02X93372Y232978I-1883J-1141D01*
G01X93252Y232926D01*
Y222488D01*
X93396Y222446D01*
G02X95305Y217837I-896J-3071D01*
G01X95233Y217705D01*
X98876Y214061D01*
Y212699D01*
X98997Y212647D01*
G02X100240Y210013I-872J-2022D01*
G03X100624Y209502I384J-111D01*
G01X102926D01*
X102978Y209622D01*
G02Y207878I2022J-872D01*
G01X102926Y207998D01*
X100026D01*
X99451Y207424D01*
X96799D01*
X96224Y207998D01*
X95975D01*
G03X95633Y207391I0J-400D01*
G02X91728Y205378I-1883J-1142D01*
G01X91676Y205498D01*
X91011D01*
Y205225D01*
X91058Y205170D01*
G02X90931Y202192I-1683J-1420D01*
G03X91124Y201520I283J-282D01*
G02X89491Y197487I-500J-2145D01*
G03X88915Y197295I-206J-343D01*
G02X85899Y196151I-2040J830D01*
G03X85322Y195767I-178J-358D01*
G37*
G36*
G01X-6497Y195772D02*
X-6376Y195824D01*
Y202814D01*
X-7811Y204248D01*
X-19061D01*
X-20752Y205939D01*
Y207301D01*
X-20872Y207353D01*
G02X-19128I872J2022D01*
G01X-19248Y207301D01*
Y206561D01*
X-18439Y205752D01*
X-7189D01*
X-4874Y203436D01*
Y195824D01*
X-4753Y195772D01*
G02X-6497I-872J-2022D01*
G37*
G36*
G01X21604Y222446D02*
X21748Y222488D01*
Y224176D01*
X21628Y224228D01*
G02Y228272I872J2022D01*
G01X21748Y228324D01*
Y244176D01*
X21628Y244228D01*
G02X23372I872J2022D01*
G01X23252Y244176D01*
Y228324D01*
X23372Y228272D01*
G02Y224228I-872J-2022D01*
G01X23252Y224176D01*
Y222488D01*
X23396Y222446D01*
G02X21604I-896J-3071D01*
G37*
G36*
G01X121196Y222296D02*
G03X121316Y222944I-163J365D01*
G01X121248Y223012D01*
Y237311D01*
X122283Y238346D01*
X122150Y238487D01*
G02X124622Y237978I1600J1513D01*
G01X124502Y237926D01*
Y237739D01*
X123511Y236748D01*
X122811D01*
X122752Y236689D01*
Y223634D01*
X123252Y223134D01*
Y222488D01*
X123396Y222446D01*
G02X121196Y222296I-896J-3071D01*
G37*
G36*
G01X142998Y252490D02*
Y256676D01*
X142878Y256728D01*
G02X144622I872J2022D01*
G01X144502Y256676D01*
Y235311D01*
X153251Y226561D01*
Y222488D01*
X153396Y222446D01*
G02X151604I-896J-3071D01*
G01X151748Y222488D01*
Y225939D01*
X142998Y234689D01*
Y247510D01*
G03X142310Y247787I-400J0D01*
G02X140896Y246929I-2310J2213D01*
G01X140752Y246887D01*
Y244689D01*
X133251Y237189D01*
Y222488D01*
X133396Y222446D01*
G02X131604I-896J-3071D01*
G01X131748Y222488D01*
Y237811D01*
X139248Y245311D01*
Y246887D01*
X139104Y246929D01*
G02X142310Y252213I896J3071D01*
G03X142998Y252490I288J277D01*
G37*
G36*
G01X56748Y245311D02*
X59767Y248330D01*
X59695Y248462D01*
G02X60962Y247195I2805J1538D01*
G01X60830Y247267D01*
X58252Y244689D01*
Y241449D01*
X58372Y241397D01*
G02X56628I-872J-2022D01*
G01X56748Y241449D01*
Y245311D01*
G37*
G36*
G01X125311Y255752D02*
X128333Y252730D01*
G02X127195Y251538I1667J-2730D01*
G01X127267Y251670D01*
X124689Y254248D01*
X104574D01*
X104522Y254128D01*
G02Y255872I-2022J872D01*
G01X104574Y255752D01*
X125311D01*
G37*
G36*
G01X29302Y247303D02*
Y252697D01*
G02X29803Y253198I501J0D01*
G01X35197D01*
G02X35698Y252697I0J-501D01*
G01Y247303D01*
G02X35197Y246802I-501J0D01*
G01X29803D01*
G02X29302Y247303I0J501D01*
G37*
G36*
G01X106802D02*
Y252697D01*
G02X107303Y253198I501J0D01*
G01X112697D01*
G02X113198Y252697I0J-501D01*
G01Y247303D01*
G02X112697Y246802I-501J0D01*
G01X107303D01*
G02X106802Y247303I0J501D01*
G37*
G36*
G01X159302Y216678D02*
Y222072D01*
G02X159803Y222574I501J1D01*
G01X165197D01*
G02X165698Y222072I-1J-502D01*
G01Y216678D01*
G02X165197Y216176I-501J-1D01*
G01X159803D01*
G02X159302Y216678I1J502D01*
G37*
G54D23*
X-131875Y118750D03*
X-91250Y137500D03*
X-46969Y163656D03*
X-5625Y187500D03*
G54D24*
X160000Y250000D03*
X170000D03*
X150000D03*
X142500Y219375D03*
X120000Y250000D03*
X52500D03*
X42500D03*
X12500Y219375D03*
X2500D03*
G54D28*
X-166250Y117500D03*
%LPD*%
G75*
G54D10*
X-310000Y62500D03*
X-309375Y96875D03*
X-307500Y145000D03*
X-304375Y138750D03*
X-307500Y153750D03*
X-306875Y150000D03*
X-305000Y158750D03*
X-310625Y188750D03*
X-310000Y223125D03*
X-312500Y235729D03*
X-307500Y233021D03*
X-310000Y245625D03*
X-295625Y105000D03*
X-292774Y125000D03*
X-295000Y136875D03*
X-295625Y154375D03*
X-286875Y185000D03*
X-296250Y235000D03*
X-301250Y227500D03*
X-295625Y241250D03*
X-271250Y112500D03*
X-275000Y116250D03*
X-270625Y102500D03*
X-280295Y122205D03*
X-270625Y145625D03*
X-281875Y141875D03*
X-280000Y161875D03*
X-279375Y187500D03*
X-273750Y188125D03*
X-270000Y200125D03*
X-276250Y195000D03*
X-279999Y229999D03*
X-277766Y227236D03*
X-267480Y79980D03*
X-265000Y110000D03*
X-259375D03*
X-262500Y118750D03*
X-265409Y120625D03*
X-251250D03*
X-252500Y146250D03*
X-265000Y165000D03*
X-252500Y158750D03*
Y222500D03*
X-261250Y231250D03*
X-253750Y235000D03*
X-260000Y258750D03*
X-245000Y106250D03*
X-233204Y145079D03*
X-238750Y147500D03*
Y155625D03*
X-235000Y158750D03*
X-240000Y161250D03*
X-241250Y172500D03*
X-241875Y186875D03*
X-238750Y179375D03*
X-249375Y183750D03*
X-246250Y191250D03*
X-241875Y224375D03*
X-245000Y233750D03*
X-246250Y242500D03*
X-248750Y237500D03*
X-228125Y76250D03*
X-229375Y116250D03*
X-228125Y129375D03*
X-216250Y128750D03*
X-223750Y126250D03*
X-228750Y150625D03*
X-226875Y137500D03*
X-217062Y162062D03*
X-228750Y166250D03*
X-219375Y157500D03*
X-221250Y174872D03*
X-223750Y180000D03*
X-230000Y183750D03*
X-218750Y215000D03*
X-231252Y233127D03*
X-212737Y102500D03*
X-200000Y113750D03*
X-201875Y133125D03*
X-212500Y136250D03*
X-203750Y120625D03*
X-198125Y140625D03*
X-200000Y146250D03*
X-214355Y168770D03*
X-199375Y196875D03*
X-198750Y222500D03*
X-193750Y25000D03*
X-190000Y115625D03*
X-185625Y103750D03*
X-188750Y132500D03*
X-182500Y135000D03*
X-194448Y147500D03*
X-196875Y167500D03*
X-183437Y172187D03*
X-183125Y166875D03*
X-195000Y206250D03*
X-186248Y193752D03*
X-188750Y197500D03*
X-183750Y215000D03*
X-186248Y217502D03*
X-192500Y230625D03*
X-187500Y256250D03*
X-185000Y262500D03*
X-163750Y65000D03*
X-162812Y69687D03*
X-164375Y75000D03*
X-162500Y96250D03*
X-166875Y86250D03*
X-173125Y107500D03*
X-167500Y176875D03*
X-176250D03*
X-162923Y212077D03*
X-170000Y256250D03*
X-158750Y56250D03*
X-157813Y89688D03*
X-156250Y110625D03*
X-151250Y110000D03*
X-147500Y115000D03*
X-145886Y104114D03*
X-156875Y115000D03*
X-148750Y127500D03*
X-150000Y131875D03*
X-151875Y147500D03*
X-147500Y153125D03*
X-158750Y146250D03*
X-151250Y171875D03*
Y158125D03*
X-146875Y173750D03*
X-155000Y176250D03*
X-157500Y180000D03*
X-156250Y223750D03*
X-155000Y228750D03*
X-142500Y23750D03*
X-133750D03*
Y63750D03*
X-141250Y77500D03*
X-140000Y93125D03*
X-131875Y118750D03*
X-135000Y115000D03*
X-134375Y104375D03*
X-127500Y133500D03*
X-138750Y131250D03*
X-130625Y141875D03*
X-133750Y151875D03*
X-131250Y147500D03*
X-126875Y151875D03*
X-138750Y150000D03*
X-142500Y142500D03*
X-141875Y164375D03*
X-133125Y160625D03*
X-130000Y256250D03*
X-126250Y37500D03*
X-120625Y97500D03*
X-113125Y99375D03*
X-118750Y101358D03*
X-115000Y113125D03*
X-122357Y117101D03*
X-121875Y113125D03*
X-117500Y115625D03*
X-115000Y103750D03*
X-123750Y136250D03*
X-122500Y151875D03*
X-111875Y137500D03*
X-110000Y150000D03*
X-115000D03*
X-126250Y142500D03*
X-120000Y141875D03*
X-120625Y161250D03*
X-114375Y155000D03*
X-111522Y158750D03*
X-123125Y177500D03*
X-111875D03*
X-111250Y172500D03*
X-118750Y201250D03*
X-110000Y256250D03*
X-108750Y13750D03*
X-106875Y81875D03*
X-96250Y82500D03*
X-102500Y92500D03*
X-91875Y116250D03*
X-100000Y113750D03*
X-99375Y103125D03*
X-108125Y126875D03*
X-107500Y130000D03*
X-92500Y121250D03*
X-97500Y132500D03*
Y127500D03*
X-95000Y125000D03*
X-101875Y133750D03*
X-97500Y120000D03*
X-106250Y133750D03*
X-99375Y138818D03*
X-97500Y148750D03*
X-95000Y154375D03*
X-100625Y151875D03*
X-105000Y151250D03*
X-101250Y147500D03*
X-97298Y160423D03*
X-101250Y157500D03*
X-101875Y171875D03*
X-95000Y180000D03*
X-104375Y179375D03*
X-98750Y175625D03*
X-106250D03*
X-87500Y61250D03*
X-82500Y76250D03*
X-74333Y89333D03*
X-77500Y95000D03*
X-84823Y112323D03*
X-91250Y133125D03*
X-90625Y151250D03*
X-91250Y137500D03*
X-83125Y143750D03*
Y137500D03*
Y153750D03*
X-90000Y202500D03*
X-75219Y206250D03*
X-80000Y227500D03*
X-79375Y236875D03*
X-90000Y256250D03*
X-71250Y21250D03*
X-70000Y52500D03*
X-62500Y77500D03*
X-64375Y66875D03*
X-58125Y96250D03*
X-72500Y95625D03*
X-61875Y98750D03*
X-68622Y86747D03*
X-60000Y120000D03*
X-65000Y128750D03*
X-56888Y126264D03*
X-61250Y128125D03*
X-66250Y136250D03*
X-56250Y121250D03*
X-61250Y151250D03*
X-57371Y150129D03*
X-58750Y146300D03*
X-56250Y138750D03*
X-66250Y153750D03*
X-66875Y142500D03*
X-66250Y157500D03*
X-61250Y161250D03*
X-58750Y156250D03*
X-66875Y163125D03*
X-65000Y188750D03*
X-56875Y183750D03*
X-65625Y213750D03*
Y230000D03*
X-71250Y231250D03*
X-50000Y60000D03*
X-42500Y66250D03*
X-45000Y63750D03*
X-41875Y93750D03*
X-51250Y93125D03*
X-43750Y126875D03*
X-52500Y136875D03*
X-50625Y126746D03*
X-46250Y123750D03*
X-52500D03*
X-55625Y144375D03*
X-42500Y137500D03*
X-46250Y138750D03*
X-38750Y161250D03*
X-46969Y163656D03*
X-45000Y183750D03*
Y187500D03*
X-49375Y188750D03*
X-40625Y218750D03*
X-55000D03*
X-45000Y213750D03*
X-50000D03*
X-43750Y238750D03*
X-52681Y261250D03*
X-31250Y21250D03*
X-32500Y37500D03*
X-33750Y83125D03*
X-21875Y76875D03*
X-28750Y80000D03*
X-23125Y81250D03*
X-38125Y77500D03*
X-30000Y73750D03*
X-38125Y97396D03*
X-37500Y86875D03*
X-25000Y86250D03*
X-24375Y127500D03*
X-31250Y120625D03*
X-37500Y121250D03*
X-36875Y130625D03*
X-23750Y146875D03*
X-24345Y156280D03*
X-35000Y155625D03*
X-31250Y162500D03*
X-37126Y185374D03*
X-38125Y216250D03*
X-30000D03*
X-22500Y217500D03*
X-30625Y239375D03*
X-20000Y30000D03*
X-5000Y27500D03*
X-16250Y36250D03*
X-17500Y45000D03*
X-12500Y53750D03*
X-7500Y73750D03*
X-9375Y80000D03*
X-13125Y88125D03*
X-16250Y90000D03*
X-20000Y97500D03*
X-7500Y98125D03*
X-17500Y106250D03*
X-3750Y101875D03*
X-7500Y107500D03*
X-5000Y145625D03*
X-7500Y171875D03*
X-5000Y158750D03*
X-3750Y165000D03*
X-5625Y187500D03*
X-15701Y173201D03*
X-5625Y193750D03*
X-20000Y209375D03*
X-17500Y232500D03*
X-6875Y239375D03*
X8750Y41250D03*
X1250Y57500D03*
Y106875D03*
X3125Y110625D03*
X8125Y106875D03*
Y128125D03*
X6875Y132500D03*
X625Y136250D03*
X3750Y140000D03*
X6250Y154375D03*
X3750Y146250D03*
X-1250Y147500D03*
X-2500Y155000D03*
X-1250Y161250D03*
X-1875Y169375D03*
X13750Y187500D03*
X5563D03*
X0Y180000D03*
X1250Y187500D03*
Y172500D03*
X11250Y176250D03*
X6250Y208750D03*
X-1875Y226875D03*
X26250Y62500D03*
X23125Y106875D03*
X17500Y106250D03*
X18750Y135000D03*
X25000Y130000D03*
X23750Y143750D03*
X32500Y152500D03*
X27500Y178750D03*
X18750Y181250D03*
X23125Y187500D03*
X31562Y172812D03*
X25625Y174374D03*
X31250Y193750D03*
X28750Y233750D03*
X22500Y226250D03*
Y246250D03*
X15625Y252500D03*
X22500Y258750D03*
X47500Y62500D03*
X40000Y77500D03*
X49375Y98750D03*
X38750Y102500D03*
X43750Y131250D03*
X46250Y128750D03*
X41250Y151250D03*
X46250Y153750D03*
X37500Y170000D03*
X39577Y190423D03*
X35000Y230000D03*
X42500Y233750D03*
X53750Y76250D03*
X66250Y100000D03*
X54375Y98125D03*
X67500Y117500D03*
Y107500D03*
X61250Y133750D03*
X66250Y127500D03*
X56250Y153750D03*
X61250Y161250D03*
X51250Y156250D03*
X57500Y157500D03*
X62500Y156250D03*
X51250Y237500D03*
X63000Y240000D03*
X57500Y239375D03*
X83750Y70000D03*
X80000Y81250D03*
X71250Y93750D03*
X70000Y112500D03*
Y102500D03*
X71250Y133750D03*
X70000Y122500D03*
X83750Y152500D03*
Y160000D03*
X79375Y160625D03*
X71379Y162500D03*
X75000Y160000D03*
X76875Y175625D03*
X83125Y195625D03*
X75000Y232500D03*
X83750Y233750D03*
Y246250D03*
X87500Y93750D03*
Y116250D03*
X96250Y115000D03*
X98750Y118750D03*
X101250Y122500D03*
X102500Y127500D03*
Y132500D03*
X87500Y147500D03*
Y161875D03*
X97500Y158750D03*
X88259Y179375D03*
X87500Y192500D03*
X90625Y199375D03*
X89375Y203750D03*
X93750Y206250D03*
X86875Y198125D03*
X98125Y210625D03*
X101250Y235000D03*
X92500D03*
X90000Y253750D03*
X102500Y255000D03*
X120000Y61250D03*
X108750Y97500D03*
Y113750D03*
X106250Y135000D03*
X120000Y128750D03*
X116250D03*
X120000Y140000D03*
X111250Y141250D03*
X108750Y137500D03*
X106875Y156250D03*
X116875Y178125D03*
X119375Y200000D03*
X105000Y208750D03*
X110000Y240000D03*
X137500Y106250D03*
X138750Y130000D03*
X121250Y122500D03*
X122500Y153125D03*
X126250Y146875D03*
X137500Y175000D03*
X125635Y173125D03*
X137500Y200625D03*
X128750Y205000D03*
X130625Y208959D03*
X123750Y240000D03*
X135000Y257500D03*
X152500Y70000D03*
X155000Y106250D03*
X152500Y171250D03*
Y157500D03*
X147500Y171250D03*
X143135Y171260D03*
X154781Y175625D03*
X143750Y258750D03*
X170000Y76250D03*
X163750Y120000D03*
X171250Y122500D03*
X161250Y156875D03*
X169843Y183282D03*
X168750Y203750D03*
X160000Y258750D03*
X187472Y62528D03*
X183750Y58750D03*
X191250Y59375D03*
X187500Y55000D03*
X183750Y100000D03*
X183125Y108125D03*
X189334Y103810D03*
X191250Y136250D03*
X190625Y149375D03*
X185000Y172500D03*
X179237Y183125D03*
X190000Y218750D03*
Y260000D03*
X192500Y100000D03*
X199375Y109375D03*
X204375Y108750D03*
X209375Y107500D03*
X206250Y223750D03*
X214375Y86875D03*
X213125Y109375D03*
X225000Y223750D03*
X210000Y260000D03*
X228125Y105000D03*
X243327Y101673D03*
X236250Y130625D03*
X231250Y147500D03*
X240000Y181250D03*
X230000Y260000D03*
X253750Y131250D03*
X246250Y153125D03*
X245625Y143125D03*
X248750Y138750D03*
X245312Y179375D03*
X255000Y187500D03*
X256875Y178750D03*
X252500D03*
X256250Y172500D03*
X246250Y223750D03*
X250000Y260000D03*
X263750Y138750D03*
X265000Y171250D03*
X270000Y260000D03*
G54D11*
X-254745Y15085D03*
X-204745D03*
G54D20*
X176142Y31909D03*
X187047D03*
X181594Y43091D03*
X192500D03*
X197953Y31909D03*
X208858D03*
X203406Y43091D03*
X214311D03*
G54D21*
G01X-253750Y235000D02*
X-255129Y233621D01*
Y199121D01*
X-255500Y198750D01*
X-267910D01*
X-268985Y197675D01*
X-271075D01*
X-273800Y194950D01*
Y193985D01*
X-275235Y192550D01*
X-276200D01*
X-278750Y190000D01*
X-296250D01*
X-305000Y181250D01*
Y158750D01*
G01X-270625Y102500D02*
X-272004Y103879D01*
X-272628D01*
X-277500Y108751D01*
Y152500D01*
X-265000Y165000D01*
G01X-273750Y188125D02*
X-266875D01*
X-261250Y193750D01*
X-250500D01*
X-250000Y194250D01*
Y220910D01*
X-248800Y222110D01*
Y224140D01*
X-250000Y225340D01*
Y236250D01*
X-248750Y237500D01*
G01X-265000Y165000D02*
X-230000D01*
X-228750Y166250D01*
G01X-252500Y158750D02*
X-247500Y163750D01*
X-222500D01*
X-219375Y166875D01*
X-215925D01*
X-214100Y165050D01*
X-184950D01*
X-183125Y166875D01*
G01X-247737Y51030D02*
Y64263D01*
X-245750Y66250D01*
X-232500D01*
X-227500Y61250D01*
Y54250D01*
X-225062Y51812D01*
Y48812D01*
X-222500Y46250D01*
X-201250D01*
X-193750Y38750D01*
Y25000D01*
G01X-166250Y127500D02*
X-171250Y132500D01*
X-181250D01*
X-185000Y128750D01*
X-191250D01*
X-201825Y118175D01*
X-213175D01*
X-213750Y118750D01*
Y120000D01*
X-221250Y127500D01*
Y139500D01*
X-221750Y140000D01*
X-238250D01*
X-238750Y139500D01*
Y127500D01*
X-245625Y120625D01*
X-251250D01*
G01X-238750Y155625D02*
X-235625D01*
X-231200Y151200D01*
Y149610D01*
X-229765Y148175D01*
X-228175D01*
X-226250Y146250D01*
X-200000D01*
G01X-235000Y158750D02*
Y156415D01*
X-231660Y153075D01*
X-227735D01*
X-226300Y151640D01*
Y147715D01*
X-226085Y147500D01*
X-202215D01*
X-201015Y148700D01*
X-198985D01*
X-197785Y147500D01*
X-194448D01*
G01X-219375Y157500D02*
X-221250Y159375D01*
Y160750D01*
X-221750Y161250D01*
X-240000D01*
G01X-241875Y186875D02*
Y220910D01*
X-244325Y223360D01*
Y225390D01*
X-241875Y227840D01*
Y230625D01*
X-245000Y233750D01*
G01X-238750Y179375D02*
X-224375D01*
X-223750Y180000D01*
G01X-249375Y183750D02*
X-230000D01*
G01X-246250Y242500D02*
Y235965D01*
X-247450Y234765D01*
Y192450D01*
X-246250Y191250D01*
G01X-108750Y13750D02*
X-112500D01*
X-118750Y7500D01*
X-163750D01*
X-176250Y20000D01*
Y104330D01*
X-178170Y106250D01*
X-222500D01*
X-229375Y113125D01*
Y116250D01*
G01X-203750Y120625D02*
X-212960D01*
X-218700Y126365D01*
Y129765D01*
X-217500Y130965D01*
Y139950D01*
X-221250Y143700D01*
G01X-223750Y126250D02*
X-213750Y116250D01*
X-202500D01*
X-200000Y113750D01*
G01X-233204Y145079D02*
X-231825Y143700D01*
X-221250D01*
G01D02*
X-208845D01*
X-208095Y144450D01*
X-204405D01*
X-203705Y143750D01*
X-194733D01*
X-193404Y145079D01*
X-188671D01*
X-176250Y157500D01*
G01X-230000Y250000D02*
X-226601D01*
G01X-233399D02*
X-230000D01*
G01D02*
Y253399D01*
G01Y246601D02*
Y250000D01*
G01X-202737Y51030D02*
Y54340D01*
X-202500Y54577D01*
Y72500D01*
X-206250Y76250D01*
X-208750D01*
X-212737Y80237D01*
Y102500D01*
G01X-200000Y113750D02*
Y116250D01*
X-188750Y127500D01*
X-176250D01*
G01X-166250Y137500D02*
X-170456D01*
X-174553Y141597D01*
X-177947D01*
X-180347Y139197D01*
Y138587D01*
X-181484Y137450D01*
X-183515D01*
X-184465Y136500D01*
X-208500D01*
X-216250Y128750D01*
G01X-166250Y147500D02*
X-171153Y142597D01*
X-178362D01*
X-178459Y142500D01*
X-178750D01*
X-182800Y138450D01*
X-183930D01*
X-184751Y137629D01*
X-211121D01*
X-212500Y136250D01*
G01X-188750Y132500D02*
X-185000D01*
X-182500Y135000D01*
G01X-193750Y147500D02*
X-194448D01*
G01X-176250Y176875D02*
Y183754D01*
X-186248Y193752D01*
G01X-183437Y172187D02*
X-188750Y177500D01*
Y197500D01*
G01X-130000Y212500D02*
X-135000Y217500D01*
X-141250D01*
X-147500Y223750D01*
Y233750D01*
X-148750Y235000D01*
X-162500D01*
X-163750Y233750D01*
Y226250D01*
X-183750Y206250D01*
X-195000D01*
G01X-140000Y212500D02*
X-150000Y222500D01*
Y233250D01*
X-150500Y233750D01*
X-160000D01*
X-161250Y232500D01*
Y226250D01*
X-186248Y201252D01*
Y193752D01*
G01X-185000Y262500D02*
Y219719D01*
X-183798Y218517D01*
Y215048D01*
X-183750Y215000D01*
G01X-186248Y217502D02*
Y254998D01*
X-187500Y256250D01*
G01X-176250Y117500D02*
Y113121D01*
X-176500Y112871D01*
Y109005D01*
X-176575Y108930D01*
Y106070D01*
X-175250Y104745D01*
Y20415D01*
X-163585Y8750D01*
X-118915D01*
X-112915Y14750D01*
X-112751D01*
X-96001Y31500D01*
X-28670D01*
X-23750Y36420D01*
Y75000D01*
X-21875Y76875D01*
G01X-23125Y81250D02*
Y79300D01*
X-23750Y78675D01*
Y78465D01*
X-25000Y77215D01*
Y36585D01*
X-29085Y32500D01*
X-96416D01*
X-113166Y15750D01*
X-113330D01*
X-119330Y9750D01*
X-163170D01*
X-174250Y20830D01*
Y105160D01*
X-175575Y106485D01*
Y108515D01*
X-175500Y108590D01*
Y112456D01*
X-172153Y115803D01*
Y123403D01*
X-176250Y127500D01*
G01X-25000Y86250D02*
X-26250Y85000D01*
Y36750D01*
X-29500Y33500D01*
X-96831D01*
X-113581Y16750D01*
X-113745D01*
X-119745Y10750D01*
X-162755D01*
X-173250Y21245D01*
Y104875D01*
X-173125Y105000D01*
Y107500D01*
G01X-37500Y86875D02*
Y82500D01*
X-35000Y80000D01*
Y45331D01*
X-42830Y37501D01*
X-98490D01*
X-115241Y20750D01*
X-115405D01*
X-121155Y15000D01*
X-161345D01*
X-168750Y22405D01*
Y73750D01*
X-166825Y75675D01*
Y76015D01*
X-165390Y77450D01*
X-165050D01*
X-163750Y78750D01*
Y83751D01*
X-157813Y89688D01*
G01X-166875Y86250D02*
X-169000Y84125D01*
Y75090D01*
X-170000Y74090D01*
Y22240D01*
X-161510Y13750D01*
X-120990D01*
X-114990Y19750D01*
X-114826D01*
X-98075Y36501D01*
X-42415D01*
X-33750Y45166D01*
Y83125D01*
G01X-156875Y115000D02*
X-166250Y105625D01*
Y92335D01*
X-170000Y88585D01*
Y75505D01*
X-171000Y74505D01*
Y21825D01*
X-161925Y12750D01*
X-120575D01*
X-114575Y18750D01*
X-114411D01*
X-97661Y35500D01*
X-42001D01*
X-32500Y45001D01*
Y76250D01*
X-28750Y80000D01*
G01X-163750Y65000D02*
Y62950D01*
X-163812Y62888D01*
Y21312D01*
X-160000Y17500D01*
X-121485D01*
X-116235Y22750D01*
X-116071D01*
X-99320Y39501D01*
X-99084D01*
X-98585Y40000D01*
X-45000D01*
X-41250Y43750D01*
Y60000D01*
X-45000Y63750D01*
G01X-164375Y75000D02*
X-167500Y71875D01*
Y23000D01*
X-160750Y16250D01*
X-121320D01*
X-115820Y21750D01*
X-115656D01*
X-98905Y38501D01*
X-97749D01*
X-97500Y38750D01*
X-43750D01*
X-38125Y44375D01*
Y77500D01*
G01X-166250Y127500D02*
X-161250Y122500D01*
Y115000D01*
X-167500Y108750D01*
Y103750D01*
X-169037Y102213D01*
Y90963D01*
X-172250Y87750D01*
Y21660D01*
X-162340Y11750D01*
X-120160D01*
X-114160Y17750D01*
X-113996D01*
X-97246Y34500D01*
X-41586D01*
X-31379Y44707D01*
Y72371D01*
X-30000Y73750D01*
G01X-170299Y117500D02*
X-166250D01*
G01D02*
Y121549D01*
G01Y113451D02*
Y117500D01*
G01X-150000Y131875D02*
X-160625D01*
X-166250Y137500D01*
G01X-158750Y146250D02*
Y150750D01*
X-160500Y152500D01*
X-171250D01*
X-176250Y157500D01*
G01X-162812Y69687D02*
Y67527D01*
X-161300Y66015D01*
Y63985D01*
X-162812Y62473D01*
Y22812D01*
X-158500Y18500D01*
X-121900D01*
X-116650Y23750D01*
X-116486D01*
X-99735Y40501D01*
X-99499D01*
X-68622Y71378D01*
Y86747D01*
G01X-147500Y115000D02*
Y105965D01*
X-148336Y105129D01*
Y103099D01*
X-147500Y102263D01*
Y37500D01*
X-133750Y23750D01*
G01X-151250Y158125D02*
X-149375Y156250D01*
X-147160D01*
X-143360Y152450D01*
X-136640D01*
X-134765Y154325D01*
X-129325D01*
X-126875Y151875D01*
G01X-155000Y228750D02*
Y225965D01*
X-153800Y224765D01*
Y222735D01*
X-155000Y221535D01*
Y176250D01*
G01X-157500Y180000D02*
Y222500D01*
X-156250Y223750D01*
G01X-150000Y250000D02*
X-146601D01*
G01X-153399D02*
X-150000D01*
G01D02*
Y253399D01*
G01Y246601D02*
Y250000D01*
G01X-65000Y128750D02*
Y126250D01*
X-80750Y110500D01*
X-83181D01*
X-83808Y109873D01*
X-85838D01*
X-86465Y110500D01*
X-127330D01*
X-127530Y110700D01*
X-130700D01*
X-135000Y115000D01*
G01X-123750Y136250D02*
Y138250D01*
X-124250Y138750D01*
X-128870D01*
X-129195Y138425D01*
X-132055D01*
X-132380Y138750D01*
X-143250D01*
X-143750Y138250D01*
Y116250D01*
X-135000Y107500D01*
X-87710D01*
X-87083Y106873D01*
X-82563D01*
X-81936Y107500D01*
X-77500D01*
X-60325Y124675D01*
X-58766D01*
X-57890Y123800D01*
X-55860D01*
X-54950Y124710D01*
Y124765D01*
X-52969Y126746D01*
X-50625D01*
G01X-127500Y133500D02*
X-126750D01*
X-126250Y134000D01*
Y134500D01*
X-126750Y135000D01*
X-140750D01*
X-141250Y134500D01*
Y115165D01*
X-134585Y108500D01*
X-87295D01*
X-86668Y107873D01*
X-82978D01*
X-82351Y108500D01*
X-79000D01*
X-61825Y125675D01*
X-60235D01*
X-59646Y126264D01*
X-56888D01*
G01X-138750Y131250D02*
Y114080D01*
X-134170Y109500D01*
X-86880D01*
X-86253Y108873D01*
X-83393D01*
X-82766Y109500D01*
X-79415D01*
X-62629Y126286D01*
Y126746D01*
X-61250Y128125D01*
G01X-118750Y101358D02*
X-132608D01*
X-133175Y101925D01*
X-135390D01*
X-136825Y103360D01*
Y105390D01*
X-136250Y105965D01*
Y106250D01*
X-145000Y115000D01*
Y143750D01*
X-138750Y150000D01*
G01X-83125Y143750D02*
X-87960D01*
X-89535Y145325D01*
X-99960D01*
X-100235Y145050D01*
X-102265D01*
X-102540Y145325D01*
X-124195D01*
X-124820Y145950D01*
X-128930D01*
X-129555Y145325D01*
X-130306D01*
X-131250Y146269D01*
Y147500D01*
G01X-83125Y137500D02*
X-89949Y144324D01*
X-99545D01*
X-99820Y144050D01*
X-102680D01*
X-102956Y144325D01*
X-124610D01*
X-125235Y144950D01*
X-128515D01*
X-129140Y144325D01*
X-131825D01*
X-133750Y146250D01*
X-135000D01*
X-138750Y150000D01*
G01X-106250Y133750D02*
Y136250D01*
X-110000Y140000D01*
X-116995D01*
X-118570Y138425D01*
X-122175D01*
X-123750Y140000D01*
X-129035D01*
X-129610Y139425D01*
X-131640D01*
X-132215Y140000D01*
X-140000D01*
X-142500Y142500D01*
G01X-140000Y222500D02*
X-132500Y230000D01*
X-115000D01*
X-111250Y233750D01*
X-79035D01*
X-77785Y235000D01*
X-47500D01*
X-42500Y230000D01*
X-5000D01*
X-2500Y232500D01*
X5000D01*
X15000Y242500D01*
Y246250D01*
X30000Y261250D01*
X128750D01*
X131250Y263750D01*
X183750D01*
X185000Y262500D01*
Y202500D01*
X163750Y181250D01*
X156250D01*
X150000Y175000D01*
X142500D01*
X138750Y171250D01*
X135000D01*
X133125Y173125D01*
X125635D01*
G01X-115000Y113125D02*
X-111875Y116250D01*
X-95340D01*
X-92890Y113800D01*
X-90860D01*
X-89660Y115000D01*
X-87500D01*
X-84823Y112323D01*
G01X-122357Y117101D02*
X-120978Y118480D01*
X-120600D01*
X-119580Y119500D01*
X-105830D01*
X-99950Y125381D01*
Y130050D01*
X-97500Y132500D01*
G01Y127500D02*
X-98879Y126121D01*
Y125036D01*
X-105415Y118500D01*
X-119165D01*
X-119590Y118075D01*
Y117000D01*
X-119950Y116640D01*
Y115665D01*
X-120000Y115615D01*
Y115000D01*
X-121875Y113125D01*
G01X-117500Y115625D02*
X-115625Y117500D01*
X-105000D01*
X-97500Y125000D01*
X-95000D01*
G01X-115000Y150000D02*
X-111250Y153750D01*
Y155557D01*
X-109072Y157735D01*
Y158428D01*
X-92875Y174625D01*
X-92710D01*
X-88335Y179000D01*
X-25580D01*
X-20579Y173999D01*
X-20249D01*
X-19151Y172901D01*
Y171771D01*
X-17131Y169751D01*
X-16001D01*
X-5000Y158750D01*
G01X-126250Y142500D02*
X-125285D01*
X-124035Y141250D01*
X-122840D01*
X-121015Y139425D01*
X-118985D01*
X-117160Y141250D01*
X-109375D01*
X-101875Y133750D01*
G01X-120000Y141875D02*
X-117950D01*
X-117575Y142250D01*
X-108960D01*
X-102960Y136250D01*
X-95500D01*
X-95000Y135750D01*
Y131250D01*
X-93750Y130000D01*
X-72665D01*
X-69165Y133500D01*
X-69000D01*
X-66250Y136250D01*
G01X-111522Y158750D02*
X-108750Y161522D01*
Y207152D01*
X-110000Y208402D01*
Y212500D01*
G01X-111875Y177500D02*
Y173125D01*
X-111250Y172500D01*
G01X-118750Y201250D02*
X-117371Y202629D01*
Y202897D01*
X-115000Y205268D01*
Y217500D01*
X-110000Y222500D01*
G01X-120000D02*
X-109750Y232750D01*
X-78620D01*
X-77620Y233750D01*
X-48750D01*
X-42500Y227500D01*
X-5000D01*
X-1250Y231250D01*
X6250D01*
X17500Y242500D01*
Y246250D01*
X30000Y258750D01*
X128750D01*
X132500Y262500D01*
X182000D01*
X183447Y261053D01*
Y203750D01*
X162197Y182500D01*
X155000D01*
X151250Y178750D01*
X133750D01*
X131250Y176250D01*
X122500D01*
X118750Y172500D01*
Y153750D01*
X117500Y152500D01*
X83750D01*
G01X-97500Y120000D02*
X-96250Y118750D01*
X-88750D01*
X-78750Y128750D01*
X-72500D01*
X-68750Y132500D01*
X-63000D01*
X-62500Y133000D01*
Y138125D01*
X-66875Y142500D01*
G01X-90625Y151250D02*
X-93750D01*
X-93800Y151300D01*
X-95390D01*
X-97500Y153410D01*
Y156756D01*
X-94848Y159408D01*
Y161438D01*
X-96250Y162840D01*
Y164500D01*
X-95750Y165000D01*
X-95500D01*
X-95000Y165500D01*
Y166250D01*
X-87500Y173750D01*
X-31250D01*
X-7500Y150000D01*
Y147500D01*
X-8750Y146250D01*
Y143750D01*
X-7500Y142500D01*
X1370D01*
X2320Y143450D01*
X4535D01*
X6500Y145415D01*
Y151160D01*
X10340Y155000D01*
X11085D01*
X12085Y156000D01*
X24165D01*
X25165Y155000D01*
X26250D01*
X37500Y143750D01*
X68750D01*
X91250Y121250D01*
Y114250D01*
X92950Y112550D01*
X103300D01*
X105000Y114250D01*
Y118750D01*
X111250Y125000D01*
X119715D01*
X123750Y129035D01*
Y132500D01*
X131250Y140000D01*
Y152500D01*
X145000Y166250D01*
Y168750D01*
X147500Y171250D01*
G01X-5000Y145625D02*
Y150000D01*
X-31000Y176000D01*
X-87090D01*
X-91466Y171624D01*
X-91631D01*
X-103750Y159505D01*
Y155000D01*
X-100625Y151875D01*
G01X-1250Y148750D02*
X-29500Y177000D01*
X-87505D01*
X-91881Y172624D01*
X-92046D01*
X-105000Y159670D01*
Y151250D01*
G01X-110000Y150000D02*
X-108072Y151928D01*
Y158013D01*
X-92461Y173624D01*
X-92296D01*
X-87920Y178000D01*
X-28000D01*
X-5000Y155000D01*
X-2500D01*
G01X-95000Y180000D02*
Y196250D01*
X-92500Y198750D01*
X-60000D01*
X-57500Y201250D01*
Y214835D01*
X-56085Y216250D01*
X-52500D01*
X-50000Y218750D01*
X-40625D01*
G01X-55000D02*
X-58750Y215000D01*
Y202500D01*
X-61250Y200000D01*
X-93750D01*
X-96250Y197500D01*
Y187500D01*
X-104375Y179375D01*
G01X-98750Y175625D02*
X-93125D01*
X-88750Y180000D01*
X-25165D01*
X-20165Y175000D01*
X-19835D01*
X-18151Y173316D01*
Y172186D01*
X-16716Y170751D01*
X-14686D01*
X-10437Y175000D01*
X5165D01*
X8915Y178750D01*
X21250D01*
X26250Y183750D01*
X78420D01*
X81000Y181170D01*
Y169165D01*
X86121Y164044D01*
Y163254D01*
X87500Y161875D01*
G01X18750Y181250D02*
X10000D01*
X5000Y176250D01*
X-20000D01*
X-23750Y180000D01*
Y180750D01*
X-24250Y181250D01*
X-90000D01*
X-93750Y177500D01*
X-96250D01*
X-98125Y179375D01*
X-101375D01*
X-101875Y178875D01*
Y171875D01*
G01X-106250Y175625D02*
Y177785D01*
X-106825Y178360D01*
Y180390D01*
X-106250Y180965D01*
Y196250D01*
X-100000Y202500D01*
Y212500D01*
G01Y222500D02*
X-95951D01*
G01X-104049D02*
X-100000D01*
G01Y218451D02*
Y222500D01*
G01X-83125Y153750D02*
X-84504Y155129D01*
X-85211D01*
X-88750Y158668D01*
Y170000D01*
X-86250Y172500D01*
X-32500D01*
X-31250Y171250D01*
Y170000D01*
X-22500Y161250D01*
X-21250D01*
X-10000Y150000D01*
Y142500D01*
X-7500Y140000D01*
X285D01*
X2735Y142450D01*
X4950D01*
X7500Y145000D01*
Y150000D01*
X12500Y155000D01*
X23750D01*
X41250Y137500D01*
Y136250D01*
X35000Y130000D01*
X25000D01*
G01X-80000Y227500D02*
X-75000D01*
X-71250Y231250D01*
G01X-79375Y236875D02*
Y245927D01*
X-80000Y246552D01*
Y250000D01*
G01X-56250Y121250D02*
Y97840D01*
X-55675Y97265D01*
Y84325D01*
X-62500Y77500D01*
G01X-64375Y66875D02*
Y71875D01*
X-51250Y85000D01*
Y89660D01*
X-48800Y92110D01*
Y120050D01*
X-52500Y123750D01*
G01X-7500Y98125D02*
X-8879Y99504D01*
X-9504D01*
X-15050Y105050D01*
Y107265D01*
X-25960Y118175D01*
X-32265D01*
X-33700Y119610D01*
Y122450D01*
X-43750Y132500D01*
X-55000D01*
X-62500Y140000D01*
Y147620D01*
X-64700Y149820D01*
Y152200D01*
X-66250Y153750D01*
G01X67500Y117500D02*
X28750D01*
X23750Y122500D01*
X11625D01*
X10800Y121675D01*
X5450D01*
X4625Y122500D01*
X-8915D01*
X-9163Y122750D01*
X-10413D01*
X-22615Y134950D01*
X-25045D01*
X-43845Y153750D01*
X-60700D01*
X-61250Y153200D01*
Y151250D01*
G01X70000Y112500D02*
X32335D01*
X23585Y121250D01*
X11790D01*
X11215Y120675D01*
X5035D01*
X4460Y121250D01*
X-9080D01*
X-9330Y121500D01*
X-9333Y121501D01*
X-9580Y121750D01*
X-10828D01*
X-23030Y133950D01*
X-25460D01*
X-41639Y150129D01*
X-57371D01*
G01X67500Y107500D02*
X66250Y108750D01*
X33750D01*
X22500Y120000D01*
X11955D01*
X11630Y119675D01*
X4620D01*
X4295Y120000D01*
X-10000D01*
X-10750Y120750D01*
X-11243D01*
X-23445Y132950D01*
X-25875D01*
X-41675Y148750D01*
X-55285D01*
X-57735Y146300D01*
X-58750D01*
G01X-66875Y163125D02*
X-63800Y160050D01*
Y152715D01*
X-63700Y152615D01*
Y150235D01*
X-62265Y148800D01*
X-62000D01*
X-61500Y148300D01*
Y140416D01*
X-54884Y133800D01*
X-51485D01*
X-50285Y135000D01*
X-37500D01*
X-29825Y127325D01*
Y125240D01*
X-26635Y122050D01*
X-24550D01*
X-13125Y110625D01*
X3125D01*
G01X-61250Y161250D02*
Y159880D01*
X-60300Y158930D01*
Y158621D01*
X-59844D01*
X-59765Y158700D01*
X-44949D01*
X-43500Y157251D01*
X-43336D01*
X-23035Y136950D01*
X-20455D01*
X-15288Y131784D01*
X-14754Y131250D01*
X-13750D01*
X-7500Y125000D01*
X4955D01*
X6280Y123675D01*
X9970D01*
X11295Y125000D01*
X47840D01*
X50340Y127500D01*
X66250D01*
G01X70000Y122500D02*
X68050D01*
X66800Y123750D01*
X11460D01*
X10385Y122675D01*
X5865D01*
X4790Y123750D01*
X-9998D01*
X-22200Y135950D01*
X-23450D01*
X-43750Y156250D01*
X-58750D01*
G01X-70000Y250000D02*
X-66601D01*
G01X-73399D02*
X-70000D01*
G01D02*
Y253399D01*
G01Y246601D02*
Y250000D01*
G01X-46250Y123750D02*
Y106438D01*
X-46969Y105719D01*
Y65719D01*
X-45000Y63750D01*
G01X-52500Y136875D02*
X-51121Y138254D01*
X-50496D01*
X-50000Y138750D01*
Y142000D01*
X-49500Y142500D01*
X-39670D01*
X-26825Y129655D01*
Y126485D01*
X-25390Y125050D01*
X-20050D01*
X-11250Y116250D01*
X20000D01*
X33100Y103150D01*
X35935D01*
X37735Y104950D01*
X53799D01*
X64999Y93750D01*
X71250D01*
G01X-55625Y144375D02*
X-53750Y146250D01*
X-40590D01*
X-26290Y131950D01*
X-23860D01*
X-19925Y128015D01*
Y127755D01*
X-10920Y118750D01*
X4130D01*
X4205Y118675D01*
X12045D01*
X12120Y118750D01*
X22335D01*
X33835Y107250D01*
X54910D01*
X59660Y102500D01*
X70000D01*
G01X66250Y100000D02*
X60745D01*
X54495Y106250D01*
X32500D01*
X21250Y117500D01*
X-11085D01*
X-20925Y127340D01*
Y127600D01*
X-24275Y130950D01*
X-26705D01*
X-39505Y143750D01*
X-51250D01*
X-52550Y142450D01*
Y140500D01*
X-54300Y138750D01*
X-56250D01*
G01X23125Y106875D02*
X16250Y113750D01*
X-12920D01*
X-12921Y113749D01*
X-14058D01*
X-23360Y123050D01*
X-26220D01*
X-28825Y125655D01*
Y128825D01*
X-35129Y135129D01*
X-36214D01*
X-37085Y136000D01*
X-41000D01*
X-42500Y137500D01*
G01X38750Y102500D02*
X37371Y101121D01*
Y100371D01*
X37000Y100000D01*
X33750D01*
X20000Y113750D01*
X17665D01*
X16665Y114750D01*
X-13335D01*
X-22637Y124050D01*
X-25805D01*
X-27825Y126070D01*
Y129240D01*
X-39835Y141250D01*
X-43750D01*
X-46250Y138750D01*
G01X-45000Y187500D02*
X-46925Y189425D01*
Y189765D01*
X-48750Y191590D01*
Y210000D01*
X-45000Y213750D01*
G01X-49375Y188750D02*
Y190700D01*
X-49750Y191075D01*
Y211550D01*
X-50000Y211800D01*
Y213750D01*
G01X-52681Y261250D02*
Y247681D01*
X-43750Y238750D01*
G01X-36750Y17500D02*
X-36250Y18000D01*
G01X-36875Y130625D02*
X-6825Y100575D01*
X-6485D01*
X-5335Y99425D01*
X-2735D01*
X1719Y103879D01*
X5129D01*
X8125Y106875D01*
G01X-35000Y155625D02*
Y150330D01*
X-22620Y137950D01*
X-20040D01*
X-14589Y132500D01*
X-12500D01*
X-6250Y126250D01*
X5120D01*
X6695Y124675D01*
X9555D01*
X11130Y126250D01*
X38750D01*
X43750Y131250D01*
G01X-31250Y162500D02*
Y147995D01*
X-22205Y138950D01*
X-19625D01*
X-16924Y136250D01*
X-13750D01*
X-5000Y127500D01*
X5425D01*
X5675Y127250D01*
Y127110D01*
X7110Y125675D01*
X9140D01*
X10575Y127110D01*
Y127250D01*
X10825Y127500D01*
X37000D01*
X37500Y128000D01*
Y130000D01*
X42500Y135000D01*
X47000D01*
X47500Y134500D01*
Y129250D01*
X47000Y128750D01*
X46250D01*
G01X-23750Y146875D02*
X-19375D01*
X-6121Y133621D01*
X4531D01*
X5860Y134950D01*
X7890D01*
X9219Y133621D01*
X17371D01*
X18750Y135000D01*
G01X-22500Y217500D02*
X-14375Y209375D01*
X-3125D01*
X21250Y185000D01*
X78585D01*
X82000Y181585D01*
Y173000D01*
X90000Y165000D01*
Y162500D01*
X96250Y156250D01*
X106875D01*
G01X-25000Y250000D02*
X-30625Y244375D01*
Y239375D01*
G01X-35000Y250000D02*
X-31601D01*
G01X-38399D02*
X-35000D01*
G01D02*
Y253399D01*
G01Y246601D02*
Y250000D01*
G01X-7500Y73750D02*
X-6121Y72371D01*
X9871D01*
X18750Y81250D01*
X31250D01*
X45000Y95000D01*
X56250D01*
X70000Y81250D01*
X80000D01*
G01X-9375Y80000D02*
X-7996Y78621D01*
Y77711D01*
X-5285Y75000D01*
X11085D01*
X21085Y85000D01*
X30000D01*
X37500Y92500D01*
X41085D01*
X44585Y96000D01*
X52250D01*
X54375Y98125D01*
G01X-3750Y101875D02*
X-7500Y105625D01*
Y107500D01*
G01X-5000Y145625D02*
X-3050D01*
X-2425Y145000D01*
X700D01*
X1200Y145500D01*
Y146750D01*
X1250Y146800D01*
Y153750D01*
X5000Y157500D01*
X27500D01*
X32500Y152500D01*
G01X-5000Y158750D02*
X-165D01*
X1168Y160083D01*
X3338D01*
X3755Y160500D01*
X28745D01*
X29162Y160083D01*
X41332D01*
X45165Y156250D01*
X51250D01*
G01X-20000Y209375D02*
Y206250D01*
X-18750Y205000D01*
X-7500D01*
X-5625Y203125D01*
Y193750D01*
G01X-15000Y250000D02*
Y235000D01*
X-17500Y232500D01*
G01X-5000Y250000D02*
Y241250D01*
X-6875Y239375D01*
G01X41250Y151250D02*
X35000Y157500D01*
X28915D01*
X27915Y158500D01*
X4585D01*
X250Y154165D01*
Y152415D01*
X-1250Y150915D01*
Y148750D01*
G01Y147500D02*
Y148750D01*
G01X61250Y161250D02*
X57500Y165000D01*
X11250D01*
X8750Y167500D01*
Y171250D01*
X7500Y172500D01*
X1250D01*
G01X-2500Y155000D02*
X1250Y158750D01*
X3420D01*
X4170Y159500D01*
X28330D01*
X29080Y158750D01*
X40000D01*
X42500Y156250D01*
X43750D01*
X46250Y153750D01*
G01X-1250Y161250D02*
X3090D01*
X3340Y161500D01*
X29160D01*
X29410Y161250D01*
X51250D01*
X55000Y157500D01*
Y155000D01*
X56250Y153750D01*
G01X-3750Y165000D02*
X-1250D01*
X1250Y162500D01*
X53250D01*
X53750Y162000D01*
Y161250D01*
X57500Y157500D01*
G01X-1875Y169375D02*
X3750Y163750D01*
X55750D01*
X56250Y163250D01*
Y162500D01*
X62500Y156250D01*
G01X5563Y187500D02*
X13750D01*
G01X11250Y176250D02*
X20909D01*
X27159Y182500D01*
X78255D01*
X80000Y180755D01*
Y168750D01*
X83750Y165000D01*
Y160000D01*
G01X12500Y219375D02*
X15899D01*
G01X9101D02*
X12500D01*
G01D02*
Y222774D01*
G01Y215976D02*
Y219375D01*
G01X17500Y106250D02*
X28750Y95000D01*
X38750D01*
X42500Y98750D01*
X49375D01*
G01X79375Y160625D02*
Y165460D01*
X75250Y169585D01*
Y170375D01*
X73750Y171875D01*
Y180750D01*
X73250Y181250D01*
X30000D01*
X27500Y178750D01*
G01X23125Y187500D02*
X77500D01*
X83750Y181250D01*
Y175000D01*
X97500Y161250D01*
Y158750D01*
G01X75000Y160000D02*
Y164375D01*
X72500Y166875D01*
Y178250D01*
X72000Y178750D01*
X32500D01*
X28124Y174374D01*
X25625D01*
G01X22500Y226250D02*
Y219375D01*
G01Y226250D02*
Y246250D01*
G01X15625Y252500D02*
X21875Y258750D01*
X22500D01*
G01X96250Y115000D02*
Y118750D01*
X68750Y146250D01*
X38750D01*
X32500Y152500D01*
G01X41250Y151250D02*
X45000Y147500D01*
X69009D01*
X81260Y135250D01*
X82250D01*
X98750Y118750D01*
G01X101250Y122500D02*
X97500D01*
X83750Y136250D01*
X81675D01*
X67924Y150000D01*
X50000D01*
X46250Y153750D01*
G01X71379Y162500D02*
Y175621D01*
X70750Y176250D01*
X37500D01*
X34062Y172812D01*
X31562D01*
G01X32500Y219375D02*
X35000Y216875D01*
Y201250D01*
X40625Y195625D01*
X83125D01*
G01X42500Y219375D02*
Y215927D01*
X41250Y214677D01*
Y200000D01*
X43125Y198125D01*
X86875D01*
G01X35000Y230000D02*
X32500Y227500D01*
Y219375D01*
G01X42500Y233750D02*
Y219375D01*
G01X102500Y127500D02*
X95000D01*
X85250Y137250D01*
X82090D01*
X68089Y151250D01*
X53000D01*
X51250Y153000D01*
Y156250D01*
G01X56250Y153750D02*
X57629Y152371D01*
X63501D01*
X64880Y153750D01*
X67004D01*
X82505Y138250D01*
X86750D01*
X91250Y133750D01*
X92500D01*
X93750Y132500D01*
X102500D01*
G01X111250Y141250D02*
X83750D01*
X63750Y161250D01*
X61250D01*
G01X106250Y135000D02*
X93750D01*
X89500Y139250D01*
X82920D01*
X65942Y156227D01*
X63515Y153800D01*
X61200D01*
X57500Y157500D01*
G01X108750Y137500D02*
X93750D01*
X91000Y140250D01*
X83335D01*
X64917Y158667D01*
X62500Y156250D01*
G01X52500Y219375D02*
Y215927D01*
X51250Y214677D01*
Y201250D01*
X53125Y199375D01*
X84660D01*
X86039Y200754D01*
X89246D01*
X90625Y199375D01*
G01X89375Y203750D02*
X61750D01*
X61250Y204250D01*
Y214677D01*
X62500Y215927D01*
Y219375D01*
G01X51250Y237500D02*
Y224073D01*
X52500Y222823D01*
Y219375D01*
G01X62500D02*
Y239500D01*
X63000Y240000D01*
G01X62500Y250000D02*
X57500Y245000D01*
Y239375D01*
G01X93750Y206250D02*
X73750D01*
X71250Y208750D01*
Y214677D01*
X72500Y215927D01*
Y219375D01*
G01D02*
Y230000D01*
X75000Y232500D01*
G01X105000Y208750D02*
X99715D01*
X99140Y208175D01*
X97110D01*
X96535Y208750D01*
X86250D01*
X82500Y212500D01*
Y219375D01*
G01X83750Y233750D02*
Y224073D01*
X82500Y222823D01*
Y219375D01*
G01X128750Y210750D02*
X128250Y211250D01*
X124250D01*
X117500Y218000D01*
Y239500D01*
X113250Y243750D01*
X97500D01*
X91250Y250000D01*
X72500D01*
G01X128750Y205000D02*
X126250D01*
X116250Y215000D01*
X111250D01*
X107500Y218750D01*
Y235000D01*
X105000Y237500D01*
X92500D01*
X83750Y246250D01*
G01X101250Y235000D02*
Y224073D01*
X102500Y222823D01*
Y219375D01*
G01X92500D02*
Y235000D01*
G01X98125Y210625D02*
Y213750D01*
X92500Y219375D01*
G01X116250Y128750D02*
X129000Y141500D01*
Y153080D01*
X133750Y157830D01*
Y163060D01*
X125635Y171175D01*
Y173125D01*
G01X112500Y219375D02*
Y237500D01*
X110000Y240000D01*
G01X130000Y250000D02*
X125000Y255000D01*
X102500D01*
G01X132762Y37500D02*
X143307D01*
G01X143135Y171260D02*
Y165800D01*
X130000Y152665D01*
Y140700D01*
X120000Y130700D01*
Y128750D01*
G01X132500Y219375D02*
Y237500D01*
X140000Y245000D01*
Y250000D01*
G01X122500Y219375D02*
Y222823D01*
X122000Y223323D01*
Y237000D01*
X122500Y237500D01*
X123200D01*
X123750Y238050D01*
Y240000D01*
G01X130625Y208750D02*
X128750Y210625D01*
Y210750D01*
G01X130625Y208959D02*
X128834Y210750D01*
X128750D01*
G01X143307Y26955D02*
Y37500D01*
G01D02*
X153852D01*
G01X143307D02*
Y48045D01*
G01X152500Y219375D02*
Y226250D01*
X143750Y235000D01*
Y258750D01*
G01X171250Y122500D02*
Y77500D01*
X170000Y76250D01*
G01X187047Y31909D02*
Y49547D01*
X193700Y56200D01*
Y60390D01*
X191999Y62091D01*
Y66744D01*
X192000Y66745D01*
Y91245D01*
X194375Y93620D01*
Y98410D01*
X194950Y98985D01*
Y106200D01*
X196121Y107371D01*
X197914D01*
X198360Y106925D01*
X200390D01*
X200836Y107371D01*
X202996D01*
X204375Y108750D01*
G01X187472Y62528D02*
Y64478D01*
X187500Y64506D01*
Y64836D01*
X188750Y66086D01*
Y98620D01*
X186884Y100486D01*
Y104366D01*
X183125Y108125D01*
G01X183750Y100000D02*
X185955D01*
X187750Y98205D01*
Y66501D01*
X183750Y62501D01*
Y58750D01*
G01X187500Y55000D02*
Y59090D01*
X189999Y61589D01*
Y98786D01*
X189075Y99710D01*
Y102290D01*
X189334Y102549D01*
Y103810D01*
G01X203406Y43091D02*
Y56594D01*
X195000Y65000D01*
Y90000D01*
X202500Y97500D01*
X217500D01*
X225000Y105000D01*
Y112000D01*
X224500Y112500D01*
X200500D01*
X199375Y111375D01*
Y109375D01*
G01X209375Y107500D02*
X206590D01*
X205390Y106300D01*
X201180D01*
X200805Y105925D01*
X197945D01*
X197500Y105480D01*
Y95330D01*
X193000Y90830D01*
Y63075D01*
X196250Y59825D01*
Y52500D01*
X192500Y48750D01*
Y43091D01*
G01X213125Y109375D02*
X214504Y107996D01*
Y102504D01*
X213250Y101250D01*
X200500D01*
X200000Y100750D01*
Y96415D01*
X194000Y90415D01*
Y64075D01*
X197500Y60575D01*
Y40000D01*
X202939Y34561D01*
X206206D01*
X208858Y31909D01*
G01X192500Y100000D02*
X191121Y98621D01*
Y91781D01*
X191000Y91660D01*
Y67160D01*
X190999Y67159D01*
Y61576D01*
X191250Y61325D01*
Y59375D01*
G01X214311Y43091D02*
X218013D01*
G01X210609D02*
X214311D01*
G01D02*
Y46793D01*
G01Y39389D02*
Y43091D01*
G01X241693Y26955D02*
Y37500D01*
G01D02*
X252238D01*
G01X231148D02*
X241693D01*
G01D02*
Y48045D01*
G01X260000Y250000D02*
X263399D01*
G01X256601D02*
X260000D01*
G01D02*
Y253399D01*
G01Y246601D02*
Y250000D01*
G54D12*
X-256753Y51030D03*
X-243800Y32093D03*
X-239784Y25085D03*
X-235769Y32093D03*
X-231753Y25085D03*
X-247737Y51030D03*
X-227737Y32093D03*
X-223721Y25085D03*
X-219706Y32093D03*
X-215690Y25085D03*
X-202737Y51030D03*
X-211753D03*
G54D22*
G01X-90000Y202500D02*
X-86250Y206250D01*
Y223750D01*
X-89222Y226722D01*
X-113278D01*
X-115000Y225000D01*
Y221250D01*
X-117014Y219236D01*
Y215486D01*
X-120000Y212500D01*
G54D13*
X-220000Y250000D03*
X-200000D03*
X-210000D03*
X-180000D03*
X-190000D03*
X-170000D03*
X-150000D03*
X-160000D03*
X-130000D03*
X-140000D03*
X-110000D03*
X-120000D03*
X-100000D03*
X-80000D03*
X-90000D03*
X-70000D03*
X-25000D03*
X-5000D03*
X-15000D03*
X2500Y219375D03*
X12500D03*
X5000Y250000D03*
X22500Y49375D03*
X32500D03*
X22500Y219375D03*
X32500D03*
X42500Y49375D03*
Y219375D03*
Y250000D03*
X52500Y49375D03*
Y219375D03*
X62500D03*
Y250000D03*
X52500D03*
X72500Y219375D03*
X82500D03*
X72500Y250000D03*
X92500Y219375D03*
X102500D03*
X112500D03*
X120000Y250000D03*
X122500Y219375D03*
X132500D03*
X140000Y250000D03*
X130000D03*
X142500Y219375D03*
X152500D03*
X150000Y250000D03*
X170000D03*
X160000D03*
X190000D03*
X180000D03*
X210000D03*
X200000D03*
X220000D03*
X240000D03*
X230000D03*
X260000D03*
X250000D03*
X270000D03*
G54D14*
X-230000D03*
X-35000D03*
X32500D03*
X62500Y49375D03*
X110000Y250000D03*
X162500Y219375D03*
G54D15*
X-176250Y117500D03*
X-166250D03*
X-176250Y137500D03*
X-166250D03*
X-176250Y127500D03*
X-166250D03*
X-176250Y147500D03*
X-166250D03*
Y157500D03*
X-140000Y222500D03*
X-130000Y212500D03*
Y222500D03*
X-120000Y212500D03*
Y222500D03*
X-110000Y212500D03*
Y222500D03*
X-100000Y212500D03*
Y222500D03*
G54D16*
X-176250Y157500D03*
X-140000Y212500D03*
G54D17*
X-109056Y50000D03*
X-99213Y10630D03*
Y59843D03*
X-79528Y50000D03*
X-59843Y10630D03*
Y59843D03*
X-50000Y50000D03*
G54D18*
X143307Y37500D03*
X241693D03*
G54D19*
X170689Y43091D03*
M02*
