M48
INCH
T01C.013
T02C.02756
T03C.03937
T04C.04016
T05C.04331
T06C.05512
T07C.12598
T08C.118
T09C.12598
;LEADER: 12 
;HEADER: 
;CODE  : ASCII 
;FILE  : ETHERZb-1-4.drl for  ... layers TOP and BOTTOM
;DESIGN: ETHERZb.brd
;T01 Holesize 1. = 13.000000 Tolerance = +0.000000/-0.000000 PLATED MILS Quantity = 510
;T02 Holesize 2. = 27.560000 Tolerance = +1.970000/-1.970000 PLATED MILS Quantity = 12
;T03 Holesize 3. = 39.370000 Tolerance = +3.000000/-3.000000 PLATED MILS Quantity = 9
;T04 Holesize 4. = 40.160000 Tolerance = +0.000000/-0.000000 PLATED MILS Quantity = 66
;T05 Holesize 5. = 43.310000 Tolerance = +1.970000/-1.970000 PLATED MILS Quantity = 20
;T06 Holesize 6. = 55.120000 Tolerance = +3.000000/-3.000000 PLATED MILS Quantity = 7
;T07 Holesize 7. = 125.980000 Tolerance = +3.000000/-3.000000 PLATED MILS Quantity = 2
;T08 Holesize 8. = 118.000000 Tolerance = +0.000000/-0.000000 NON_PLATED MILS Quantity = 4
;T09 Holesize 9. = 125.980000 Tolerance = +2.000000/-2.000000 NON_PLATED MILS Quantity = 2
%
G90
T01
X002500Y013000
X-008312Y015375
X007500Y016000
X002562Y017437
X-005000Y021375
X-004938Y018875
X-004697Y016366
X-004500Y021375
X-004500Y018750
X021312Y010938
X-010625Y017562
X-011152Y015875
X-023000Y018375
X-024938Y018375
X-018750Y025625
X-018625Y021750
X002250Y025875
X001562Y025250
X002250Y024625
X002250Y022625
X-011125Y017250
X-011188Y017750
X-012312Y017750
X-001570Y017320
X000062Y013625
X-010125Y014750
X-005125Y009312
X-005250Y012375
X-006438Y006688
X-010875Y001375
X-022938Y011625
X-002000Y020938
X-000562Y019375
X-003000Y007375
X-025125Y012062
X-025250Y015875
X-018312Y016688
X-014250Y014250
X-010625Y013375
X-009750Y012000
X-006688Y014250
X-003813Y007750
X-016438Y007500
X-021938Y015750
X-024000Y016125
X018750Y005500
X018933Y010381
X-004500Y006375
X-004625Y012375
X-016375Y006500
X003156Y017281
X001875Y013500
X-002375Y014688
X007138Y016250
X002312Y018750
X001875Y018125
X-010188Y017188
X009750Y015875
X007938Y016062
X002750Y017875
X-016281Y006969
X-006862Y008675
X017000Y007625
X017125Y012250
X001125Y017625
X008375Y016000
X-009875Y017562
X008750Y016188
X-006250Y007750
X-005625Y012125
X020938Y010750
X020438Y010875
X019125Y005938
X019250Y010000
X018375Y010000
X018375Y005875
X018312Y010812
X018747Y006253
X019938Y010938
X-003062Y023938
X001375Y018750
X000556Y018750
X-029563Y015438
X-023875Y014750
X-026250Y011875
X-026541Y012062
X-029500Y013688
X-005500Y021875
X-010438Y017938
X-009500Y018000
X-004062Y021875
X-002500Y008625
X-017312Y010750
X-019445Y014750
X-023500Y015875
X-018250Y013500
X-018875Y013250
X-022375Y012625
X-020000Y011375
X-002312Y008125
X-002875Y008000
X-015688Y011500
X-015875Y014625
X-023320Y014508
X-020375Y012062
X-020000Y014625
X-023875Y015563
X-002188Y007688
X-006625Y013625
X-012000Y014188
X-022375Y018000
X-023875Y017938
X010688Y015625
X-000938Y008000
X005438Y009812
X-002250Y021750
X008375Y015250
X-008312Y013750
X-013875Y015000
X-011875Y010136
X-011500Y010375
X-013438Y010438
X-014589Y010411
X-018875Y019750
X-018344Y017219
X-015125Y015812
X-012688Y015188
X-012625Y014250
X-010188Y013375
X-003375Y008312
X-016688Y008625
X-021625Y012875
X-015000Y013188
X-015781Y008969
X-021250Y013625
X-003750Y008688
X-003688Y013063
X000812Y010688
X-004625Y013875
X003875Y010250
X-011875Y020125
X-008312Y014375
X-013125Y014750
X-022875Y016625
X-026500Y016500
X-027063Y010250
X-017625Y017688
X-018625Y019375
X-006688Y016312
X000312Y011062
X-019500Y020625
X004625Y012875
X-003125Y016250
X-000688Y023938
X005750Y023938
X-000750Y010750
X-000375Y010188
X001750Y010625
X004938Y009875
X011625Y012875
X012563Y017312
X012875Y020500
X008375Y024625
X-006625Y015375
X-000750Y009812
X-000750Y007375
X008000Y008125
X012000Y012875
X014314Y017126
X013063Y020896
X-013875Y013125
X-006125Y012812
X-000188Y016938
X006250Y015625
X010875Y013750
X-012750Y013350
X-005689Y012626
X-000375Y016500
X005750Y015750
X010625Y013500
X-012375Y013625
X-005062Y012675
X-000125Y016125
X005625Y015375
X010250Y013250
X-011500Y015000
X-000500Y015875
X005125Y015625
X010250Y012750
X-011000Y015000
X-000250Y015500
X004625Y015375
X010125Y012250
X-010500Y015125
X-000125Y014750
X004125Y015125
X009875Y011875
X-010062Y015188
X-000500Y014562
X003250Y015250
X009625Y011500
X-013500Y011500
X-006500Y012875
X000125Y017250
X006125Y016125
X011125Y014125
X002312Y010688
X-004250Y013750
X004375Y013125
X-003500Y015563
X-030500Y015875
X-025375Y023500
X-024875Y023750
X-027375Y018812
X-024625Y019125
X-024625Y024250
X-024500Y023375
X-024188Y018688
X-009500Y012500
X-011750Y011562
X-009750Y012750
X-012188Y011312
X-009750Y013250
X-012236Y011710
X-008482Y011232
X-011500Y011312
X-009000Y020250
X-005625Y013875
X006625Y010000
X007000Y010250
X-005562Y014438
X-005875Y014630
X006750Y010750
X007000Y011250
X-005737Y015013
X-006125Y015125
X006750Y011750
X007000Y012250
X-005875Y015625
X-006125Y016125
X006625Y012750
X007125Y009375
X-005250Y013688
X010500Y020875
X008375Y023375
X004250Y023375
X008688Y019812
X009250Y023500
X009812Y021062
X007500Y023250
X009375Y020625
X010125Y023500
X006300Y024000
X008938Y020375
X003500Y023000
X008312Y019562
X005125Y023750
X009062Y019938
X011000Y024000
X-015625Y022375
X-015750Y018000
X-015500Y017625
X-015500Y022875
X012375Y024000
X000125Y010688
X-001312Y008812
X-030938Y009688
X-015188Y014750
X-010125Y015750
X-019812Y014062
X-018562Y010375
X000688Y013250
X-027500Y011625
X000375Y014625
X-011188Y013750
X-009938Y010312
X-009625Y008250
X-013188Y011875
X024875Y013875
X024563Y014313
X-002000Y009750
X-000750Y017188
X-014688Y017375
X-004188Y009375
X005375Y007625
X024333Y010167
X021438Y008688
X-005688Y018375
X-004500Y018375
X-000562Y018750
X-022688Y013750
X-030688Y015000
X-027938Y018750
X-025250Y022250
X-030750Y023302
X-031250Y023573
X-027625Y019500
X-006188Y009875
X-009250Y012125
X-009125Y013750
X-022812Y007625
X-026748Y007998
X-021436Y016877
X-021274Y010250
X-019375Y002500
X-013375Y002375
X-014750Y011500
X014750Y017125
X-009062Y015125
X-004375Y023875
X-005268Y026125
X014375Y025875
X-018375Y021500
X-018500Y026250
X-007938Y023688
X-007125Y023125
X-008000Y022750
X-001750Y023250
X010250Y025500
X025625Y017250
X025250Y017875
X025688Y017875
X017924Y018312
X012625Y014688
X011938Y020000
X013750Y020062
X016875Y020375
X-006562Y021375
X-031062Y018875
X-028000Y016188
X-028188Y014188
X-027063Y014562
X-025250Y014625
X-024125Y017250
X-019938Y019688
X-015125Y017188
X-016750Y017688
X-003750Y012125
X-004375Y012688
X-004250Y006625
X-009500Y015438
X-003000Y021625
X-014875Y012750
X-014750Y015312
X-009750Y014875
X-011438Y015500
X-013375Y015188
X-013312Y016062
X-012250Y015188
X-021875Y021500
X-017000Y025625
X-013000Y025625
X-011000Y025625
X-009000Y025625
X002875Y023375
X009000Y025375
X013500Y025750
X016000Y025875
X027000Y026000
R04X-002000
X019000Y021875
X020625Y022375
X022500Y022375
X024625Y022375
X026500Y017125
X025500Y018750
X025375Y013125
X026375Y013875
X018500Y017250
X015250Y015750
X008750Y011625
X008750Y009375
X010875Y011375
X010875Y009750
X012125Y012250
X013875Y013000
X015500Y010625
X015250Y007000
X012000Y006125
X008375Y007000
X-001750Y004500
X000125Y005750
X002625Y006250
X004750Y006250
X-007125Y002125
X-003125Y002125
X-000500Y002750
X000875Y004125
X-001625Y003625
X-015875Y005625
X-013375Y006375
X-012625Y003750
X-008750Y006125
X-007000Y005250
X-002000Y003000
X-003250Y003750
X-001250Y005375
X-005000Y006000
X-007750Y009500
X-010250Y009250
X-008250Y007625
X000125Y018750
X000625Y020875
X008750Y019250
X003125Y019375
X003750Y017000
X002375Y014375
X007125Y013375
X008750Y014750
X012000Y014000
X019125Y013625
X015250Y017125
X016375Y012000
X013750Y010625
X024531Y017938
X-019875Y022250
X-016292Y021208
X007688Y017562
X011688Y017812
X-003813Y021625
X-020188Y013312
X-019000Y011562
X000812Y012812
X-027125Y011250
X-006000Y012000
X-003875Y016125
X-006625Y015750
X-001625Y009000
X000625Y015438
X-010750Y013000
X-010000Y011375
X-011312Y009938
X-030750Y015375
X-025938Y011000
X-022875Y015062
X-026500Y011000
X-029277Y012500
X-028030Y012221
X-007433Y008933
X-007250Y009562
X-030438Y013875
X-029563Y010500
X-001750Y010625
X-003125Y012062
X003958Y019042
X-000188Y022688
X-010688Y008188
X-013063Y014188
X-016250Y009625
X-015125Y011000
X-015625Y011062
X-014125Y007750
X023125Y014750
X024000Y018125
X024625Y015312
X016984Y018328
X019062Y014938
X016125Y015688
X000000Y018000
X000375Y014000
X-002434Y015628
X-002438Y012750
X-009938Y013882
X-014188Y016438
X-012062Y016125
X-003813Y009740
X012250Y015312
X004000Y007750
X023625Y013063
X022812Y010500
X-021706Y016206
X-022125Y017487
X-006500Y018875
X-003713Y018537
X-029563Y024125
X-022812Y012938
X-030750Y014500
X-028688Y018500
X-024188Y022438
X-014250Y002375
X-027777Y022724
X-030125Y022750
X-031000Y024563
X-031000Y022312
X-026000Y025875
X-027000Y020013
X-005812Y009625
X-009188Y011625
X-009125Y013312
X-009730Y016042
X-031000Y006250
X-024500Y010625
X-019688Y016750
X-010812Y012688
X-014000Y009312
X-012062Y009750
X-007522Y020625
X-023125Y023313
X-019250Y023062
X-006562Y023000
X006125Y013375
X008826Y017938
X015478Y017562
X013750Y017500
X-028000Y023000
X-029625Y023500
X-026125Y023125
T02
X-021569Y002508
X-021971Y003209
X-022372Y002508
X-022774Y003209
X-023175Y002508
X-023577Y003209
X-023978Y002508
X-024380Y003209
X-025675Y005103
X-024774Y005103
X-021175Y005103
X-020274Y005103
T03
X017069Y004309
X018159Y004309
X019250Y004309
X020341Y004309
X021431Y004309
X017614Y003191
X018705Y003191
X019795Y003191
X020886Y003191
T04
X-023000Y025000
R16X001000
X-003500Y025000
R04X001000
X003250Y025000
R04X001000
X006250Y004938
R04X-001000
X016250Y021938
R16X-001000
X011000Y025000
R16X001000
T05
X-017625Y015750
X-016625Y015750
X-017625Y014750
X-016625Y014750
X-017625Y013750
X-016625Y013750
X-017625Y012750
X-016625Y012750
X-017625Y011750
X-016625Y011750
X-014000Y021250
X-014000Y022250
X-013000Y021250
X-013000Y022250
X-012000Y021250
X-012000Y022250
X-011000Y021250
X-011000Y022250
X-010000Y021250
X-010000Y022250
T06
X-005000Y005000
R02X-002953
X-005984Y005984
X-009921Y005984
X-009921Y001063
X-005984Y001063
T07
X014331Y003750
X024169Y003750
T08
X-029000Y003000
X000750Y009000
X029000Y003000
X028500Y013438
T09
X-025474Y001508
X-020474Y001508
M30
